<?xml version="1.0" encoding="UTF-8"?>
<!DOCTYPE svg PUBLIC "-//W3C//DTD SVG 1.1//EN" "http://www.w3.org/Graphics/SVG/1.1/DTD/svg11.dtd">
<svg xmlns="http://www.w3.org/2000/svg" version="1.1" width="1352px" height="1352px" style="shape-rendering:geometricPrecision; text-rendering:geometricPrecision; image-rendering:optimizeQuality; fill-rule:evenodd; clip-rule:evenodd" xmlns:xlink="http://www.w3.org/1999/xlink">
<g><path style="opacity:1" fill="#3371cc" d="M 653.5,447.5 C 654.209,448.404 655.209,448.737 656.5,448.5C 656.819,443.637 656.486,438.97 655.5,434.5C 654.569,432.967 653.902,431.3 653.5,429.5C 656.317,425.254 658.484,420.587 660,415.5C 663.92,409.289 669.42,407.123 676.5,409C 677.88,410.925 679.38,412.759 681,414.5C 716.441,409.458 751.941,409.292 787.5,414C 802.307,418.14 811.807,427.64 816,442.5C 834.337,501.515 846.004,561.849 851,623.5C 857.486,603.225 863.819,582.891 870,562.5C 876.969,544.564 885.636,527.564 896,511.5C 905.172,498.496 917.672,490.996 933.5,489C 958.131,484.855 982.797,484.522 1007.5,488C 1025.1,489.931 1036.26,499.431 1041,516.5C 1045.07,533.009 1048.41,549.676 1051,566.5C 1053.95,580.065 1060.28,591.732 1070,601.5C 1076.49,557.024 1086.49,513.357 1100,470.5C 1103.17,459.31 1109.01,449.81 1117.5,442C 1124.27,439.225 1131.27,437.225 1138.5,436C 1147.48,434.836 1156.48,434.003 1165.5,433.5C 1152.82,439.009 1140.82,445.842 1129.5,454C 1122.19,462.124 1117.69,471.624 1116,482.5C 1114,491.053 1113.16,499.719 1113.5,508.5C 1110.09,518.825 1107.59,529.492 1106,540.5C 1102.84,561.468 1100.01,582.468 1097.5,603.5C 1093.07,614.704 1088.9,626.037 1085,637.5C 1084.74,641.706 1084.24,645.873 1083.5,650C 1083.15,651.257 1082.48,651.591 1081.5,651C 1078.64,648.106 1076.14,644.939 1074,641.5C 1068.67,632.167 1063.33,622.833 1058,613.5C 1053.14,601.913 1048.47,590.246 1044,578.5C 1038.4,567.619 1032.56,556.952 1026.5,546.5C 1025.43,534.431 1021.93,523.098 1016,512.5C 1010.81,507.323 1004.65,503.823 997.5,502C 990.221,500.753 982.888,500.253 975.5,500.5C 957.43,495.472 940.763,498.306 925.5,509C 907.714,520.355 895.547,536.188 889,556.5C 885.39,567.609 882.723,578.942 881,590.5C 875.257,613.979 865.257,635.312 851,654.5C 849.736,656.607 847.903,657.607 845.5,657.5C 845.993,640.496 846.66,623.496 847.5,606.5C 847.483,600.787 846.983,595.12 846,589.5C 835.965,568.73 828.298,547.064 823,524.5C 818.478,504.366 815.144,484.032 813,463.5C 808.121,451.457 799.954,442.457 788.5,436.5C 787.426,435.115 786.093,433.949 784.5,433C 779.113,430.423 773.446,428.923 767.5,428.5C 751.126,422.414 735.126,423.247 719.5,431C 716.31,433.364 713.31,435.864 710.5,438.5C 702.892,440.368 695.225,442.034 687.5,443.5C 688.74,452.139 689.74,460.805 690.5,469.5C 688.887,473.732 687.554,478.065 686.5,482.5C 690.384,509.035 692.884,535.701 694,562.5C 696.01,575.56 698.343,588.56 701,601.5C 708.475,622.757 715.641,644.091 722.5,665.5C 724.527,675.845 726.693,686.179 729,696.5C 729.498,699.482 729.665,702.482 729.5,705.5C 726.535,717.032 724.035,728.698 722,740.5C 721.5,751.828 721.333,763.162 721.5,774.5C 707.905,747.296 697.072,718.962 689,689.5C 687.121,678.749 686.288,667.916 686.5,657C 687.729,636.845 688.229,616.678 688,596.5C 685.498,577.172 680.664,558.505 673.5,540.5C 671.488,551.229 667.655,561.229 662,570.5C 656.313,575.428 649.813,578.928 642.5,581C 632.996,583.596 623.329,585.263 613.5,586C 594.833,586.667 576.167,586.667 557.5,586C 550.988,585.239 544.488,584.406 538,583.5C 537.167,583.833 536.333,584.167 535.5,584.5C 538.867,595.505 545.2,604.172 554.5,610.5C 562.465,611.569 570.465,611.736 578.5,611C 598.729,607.039 619.062,603.872 639.5,601.5C 650.393,600.622 658.893,604.622 665,613.5C 670.665,623.829 674.332,634.829 676,646.5C 679.546,668.427 680.213,690.427 678,712.5C 676.939,715.562 675.106,718.062 672.5,720C 661.179,724.065 649.512,726.732 637.5,728C 602.28,732.026 566.947,733.859 531.5,733.5C 529.696,751.459 529.196,769.459 530,787.5C 531.529,795.948 533.529,804.281 536,812.5C 546.074,840.722 555.74,869.055 565,897.5C 567.27,905.641 566.937,913.641 564,921.5C 560.432,925.938 556.265,926.605 551.5,923.5C 552.03,924.756 552.03,926.256 551.5,928C 511.337,926.501 471.67,921.167 432.5,912C 412.868,906.041 398.368,893.874 389,875.5C 388.009,873.553 387.675,871.553 388,869.5C 396.142,859.81 404.809,859.143 414,867.5C 414.333,855.167 414.667,842.833 415,830.5C 419.873,789.892 424.207,749.226 428,708.5C 429.187,688.385 428.187,668.385 425,648.5C 413.338,601.243 407.505,553.243 407.5,504.5C 407.666,498.491 407.499,492.491 407,486.5C 406.283,487.044 405.783,487.711 405.5,488.5C 401.473,498.219 396.64,507.553 391,516.5C 388.933,519.07 386.433,521.07 383.5,522.5C 375.222,519.089 370.722,513.089 370,504.5C 371.588,500.328 373.421,496.328 375.5,492.5C 379.757,489.749 383.59,486.416 387,482.5C 389.126,477.036 390.293,471.369 390.5,465.5C 392.62,459.627 391.286,454.627 386.5,450.5C 383.323,443.973 378.656,438.806 372.5,435C 350.034,425.905 326.701,420.239 302.5,418C 290.548,416.246 278.548,415.58 266.5,416C 264.152,416.11 262.652,417.277 262,419.5C 246.821,409.973 230.321,406.806 212.5,410C 209.173,410.61 205.839,411.11 202.5,411.5C 217.33,406.409 232.664,402.909 248.5,401C 300.826,398.775 350.492,409.108 397.5,432C 402.079,434.702 405.912,438.202 409,442.5C 409.353,438.883 410.186,435.383 411.5,432C 410.015,429.844 408.515,427.677 407,425.5C 404.691,421.577 405.191,418.077 408.5,415C 411.663,412.584 414.996,410.418 418.5,408.5C 482.351,413.565 545.685,422.398 608.5,435C 623.646,438.703 638.646,442.869 653.5,447.5 Z"/></g>
<g><path style="opacity:1" fill="#d3362e" d="M 386.5,450.5 C 388.298,455.359 389.632,460.359 390.5,465.5C 390.293,471.369 389.126,477.036 387,482.5C 383.59,486.416 379.757,489.749 375.5,492.5C 372.131,494.515 368.798,496.515 365.5,498.5C 360.268,501.078 354.768,502.744 349,503.5C 330.916,501.941 313.082,498.941 295.5,494.5C 289.077,496.363 282.744,498.53 276.5,501C 244.543,503.886 212.543,505.886 180.5,507C 165.272,519.528 149.772,531.695 134,543.5C 131.507,556.514 133.34,568.847 139.5,580.5C 143.894,591.62 148.56,602.62 153.5,613.5C 155.261,616.945 156.927,620.445 158.5,624C 176.872,624.679 195.205,625.845 213.5,627.5C 230.081,629.871 246.748,632.538 263.5,635.5C 265.515,636.924 267.848,637.59 270.5,637.5C 271.78,638.931 273.447,639.598 275.5,639.5C 283.541,643.37 289.875,649.204 294.5,657C 321.109,670.777 342.442,690.277 358.5,715.5C 368.8,741.207 370.3,767.54 363,794.5C 361.054,801.058 358.054,807.058 354,812.5C 320.863,847.648 280.03,867.148 231.5,871C 214.239,873.368 196.906,874.035 179.5,873C 174.627,872.116 169.96,870.616 165.5,868.5C 164.354,869.145 163.354,869.978 162.5,871C 150.768,871.897 139.101,871.397 127.5,869.5C 125.142,869.753 122.808,870.086 120.5,870.5C 109.476,871.214 99.4755,868.547 90.5,862.5C 70.312,844.653 69.312,825.82 87.5,806C 92.956,801.216 98.956,797.216 105.5,794C 110.746,792.494 116.079,792.161 121.5,793C 133.085,795.597 144.751,797.764 156.5,799.5C 165.133,798.076 173.8,796.743 182.5,795.5C 185.414,795.367 187.747,794.2 189.5,792C 191.833,791.667 194.167,791.333 196.5,791C 212.672,790.831 228.672,790.331 244.5,789.5C 261.471,788.265 275.637,781.265 287,768.5C 288.588,765.826 289.755,762.992 290.5,760C 288.16,752.645 283.826,746.645 277.5,742C 271.345,737.089 265.011,732.423 258.5,728C 252.264,724.968 245.931,724.801 239.5,727.5C 223.153,727.64 206.82,727.307 190.5,726.5C 170.125,725.09 150.125,721.59 130.5,716C 111.49,706.657 96.6567,692.824 86,674.5C 74.2858,654.069 65.6191,632.402 60,609.5C 56.3986,583.747 56.8986,558.081 61.5,532.5C 66.3125,516.208 73.8125,501.208 84,487.5C 89.8422,479.803 95.6756,472.137 101.5,464.5C 121.746,440.859 147.08,425.026 177.5,417C 185.84,414.997 194.173,413.164 202.5,411.5C 205.839,411.11 209.173,410.61 212.5,410C 230.321,406.806 246.821,409.973 262,419.5C 262.652,417.277 264.152,416.11 266.5,416C 278.548,415.58 290.548,416.246 302.5,418C 326.701,420.239 350.034,425.905 372.5,435C 378.656,438.806 383.323,443.973 386.5,450.5 Z"/></g>
<g><path style="opacity:1" fill="#50aa64" d="M 767.5,428.5 C 770.587,429.557 773.254,431.391 775.5,434C 779.933,434.418 784.266,435.251 788.5,436.5C 799.954,442.457 808.121,451.457 813,463.5C 815.144,484.032 818.478,504.366 823,524.5C 828.298,547.064 835.965,568.73 846,589.5C 846.983,595.12 847.483,600.787 847.5,606.5C 846.66,623.496 845.993,640.496 845.5,657.5C 847.903,657.607 849.736,656.607 851,654.5C 865.257,635.312 875.257,613.979 881,590.5C 882.723,578.942 885.39,567.609 889,556.5C 895.547,536.188 907.714,520.355 925.5,509C 940.763,498.306 957.43,495.472 975.5,500.5C 987.966,504.764 998.466,512.097 1007,522.5C 1013.74,530.399 1020.24,538.399 1026.5,546.5C 1032.56,556.952 1038.4,567.619 1044,578.5C 1048.47,590.246 1053.14,601.913 1058,613.5C 1063.33,622.833 1068.67,632.167 1074,641.5C 1076.14,644.939 1078.64,648.106 1081.5,651C 1082.48,651.591 1083.15,651.257 1083.5,650C 1084.24,645.873 1084.74,641.706 1085,637.5C 1088.9,626.037 1093.07,614.704 1097.5,603.5C 1104.05,592.752 1109.55,581.419 1114,569.5C 1114.91,563.368 1115.41,557.201 1115.5,551C 1114.75,536.834 1114.08,522.667 1113.5,508.5C 1113.16,499.719 1114,491.053 1116,482.5C 1117.69,471.624 1122.19,462.124 1129.5,454C 1140.82,445.842 1152.82,439.009 1165.5,433.5C 1171.87,431.616 1178.37,430.283 1185,429.5C 1189.04,429.792 1192.87,430.792 1196.5,432.5C 1203.18,442.537 1209.85,452.537 1216.5,462.5C 1224.09,472.258 1232.25,481.591 1241,490.5C 1245.44,496.392 1249.6,502.392 1253.5,508.5C 1257.82,518.84 1258.65,529.507 1256,540.5C 1255.67,569.167 1255.33,597.833 1255,626.5C 1254.06,632.494 1253.22,638.494 1252.5,644.5C 1250.47,654.271 1247.97,663.938 1245,673.5C 1238.35,690.12 1231.19,706.453 1223.5,722.5C 1212.26,743.069 1205.09,765.069 1202,788.5C 1201.6,810.507 1201.6,832.507 1202,854.5C 1200.64,864.625 1198.64,874.625 1196,884.5C 1194.62,889.584 1192.46,894.251 1189.5,898.5C 1185.14,902.528 1180.81,906.528 1176.5,910.5C 1164.78,919.023 1151.78,924.856 1137.5,928C 1122.4,929.632 1108.73,925.965 1096.5,917C 1093.21,912.252 1090.04,907.419 1087,902.5C 1083.68,900.671 1080.52,898.671 1077.5,896.5C 1066.27,883.749 1056.77,869.749 1049,854.5C 1041.47,837.582 1034.14,820.582 1027,803.5C 1022.33,788.833 1017.67,774.167 1013,759.5C 1011.06,755.278 1008.89,751.278 1006.5,747.5C 996.189,731.669 986.022,715.669 976,699.5C 970.372,690.922 968.372,681.588 970,671.5C 971.816,663.577 972.983,655.577 973.5,647.5C 973.67,646.178 973.337,645.011 972.5,644C 967.06,642.826 962.06,643.826 957.5,647C 956.242,648.741 955.242,650.574 954.5,652.5C 947.431,671.437 941.598,690.77 937,710.5C 935.375,737.841 931.541,764.841 925.5,791.5C 925.5,791.833 925.5,792.167 925.5,792.5C 924.232,794.905 923.565,797.572 923.5,800.5C 922.738,810.261 921.405,819.927 919.5,829.5C 917.343,843.811 913.843,857.811 909,871.5C 896.172,893.339 880.672,913.172 862.5,931C 847.274,941.825 830.274,946.158 811.5,944C 801.085,943.417 791.418,940.417 782.5,935C 778.578,931.749 775.412,927.916 773,923.5C 766.855,909.207 759.689,895.54 751.5,882.5C 736.383,859.076 727.216,833.409 724,805.5C 723.166,795.138 722.332,784.804 721.5,774.5C 721.333,763.162 721.5,751.828 722,740.5C 724.035,728.698 726.535,717.032 729.5,705.5C 730.42,691.69 728.087,678.357 722.5,665.5C 715.641,644.091 708.475,622.757 701,601.5C 698.343,588.56 696.01,575.56 694,562.5C 692.884,535.701 690.384,509.035 686.5,482.5C 687.554,478.065 688.887,473.732 690.5,469.5C 695.907,458.353 702.573,448.019 710.5,438.5C 713.31,435.864 716.31,433.364 719.5,431C 735.126,423.247 751.126,422.414 767.5,428.5 Z"/></g>
<g><path style="opacity:1" fill="#deecee" d="M 767.5,428.5 C 773.446,428.923 779.113,430.423 784.5,433C 786.093,433.949 787.426,435.115 788.5,436.5C 784.266,435.251 779.933,434.418 775.5,434C 773.254,431.391 770.587,429.557 767.5,428.5 Z"/></g>
<g><path style="opacity:1" fill="#4596f7" d="M 624.5,465.5 C 632.355,471.359 640.188,477.359 648,483.5C 648.497,481.19 648.663,478.857 648.5,476.5C 649.319,479.305 649.819,482.305 650,485.5C 655.047,488.88 659.047,493.214 662,498.5C 663.379,506.015 665.379,513.349 668,520.5C 668.331,529.172 665.665,536.838 660,543.5C 650.945,553.948 639.445,560.115 625.5,562C 608.644,565.267 591.644,566.267 574.5,565C 562.515,563.749 550.848,561.416 539.5,558C 534.785,563.923 530.951,570.423 528,577.5C 527.333,588.5 527.333,599.5 528,610.5C 536.779,609.304 545.612,609.304 554.5,610.5C 559.804,612.83 564.47,616.163 568.5,620.5C 581.725,614.868 595.392,610.868 609.5,608.5C 620.874,608.872 631.541,611.705 641.5,617C 658.67,633.508 666.836,653.674 666,677.5C 663.504,683.832 660.004,689.499 655.5,694.5C 649.38,699.733 642.714,704.233 635.5,708C 636.094,708.464 636.761,708.631 637.5,708.5C 601.38,722.622 563.714,729.622 524.5,729.5C 523.593,765.534 521.926,801.534 519.5,837.5C 517.244,845.895 515.744,854.561 515,863.5C 511.956,874.212 505.123,881.379 494.5,885C 472.011,893.408 455.677,886.908 445.5,865.5C 444.977,862.11 444.143,858.777 443,855.5C 437.558,772.543 432.891,689.543 429,606.5C 428.333,577.5 428.333,548.5 429,519.5C 429.85,504.749 432.684,490.416 437.5,476.5C 442.624,467.779 448.624,459.612 455.5,452C 463.767,446.039 472.433,440.872 481.5,436.5C 521.034,426.753 559.034,430.92 595.5,449C 605.554,454.021 615.221,459.521 624.5,465.5 Z"/></g>
<g><path style="opacity:1" fill="#3270cc" d="M 1196.5,432.5 C 1221.53,431.723 1246.2,434.223 1270.5,440C 1282.39,442.906 1292.56,448.739 1301,457.5C 1306.66,467.451 1308.66,478.118 1307,489.5C 1303.33,513.527 1296.99,536.86 1288,559.5C 1276.67,588.152 1264.83,616.485 1252.5,644.5C 1253.22,638.494 1254.06,632.494 1255,626.5C 1255.33,597.833 1255.67,569.167 1256,540.5C 1258.65,529.507 1257.82,518.84 1253.5,508.5C 1257.46,497.106 1261.3,485.772 1265,474.5C 1248.84,470.555 1232.67,466.555 1216.5,462.5C 1209.85,452.537 1203.18,442.537 1196.5,432.5 Z"/></g>
<g><path style="opacity:1" fill="#76a5de" d="M 469.5,436.5 C 458.679,437.495 447.679,437.828 436.5,437.5C 436.5,438.833 436.5,440.167 436.5,441.5C 435.549,440.081 435.216,438.415 435.5,436.5C 446.833,436.5 458.167,436.5 469.5,436.5 Z"/></g>
<g><path style="opacity:1" fill="#9abfe7" d="M 655.5,434.5 C 656.486,438.97 656.819,443.637 656.5,448.5C 655.209,448.737 654.209,448.404 653.5,447.5C 655.43,443.627 656.097,439.294 655.5,434.5 Z"/></g>
<g><path style="opacity:1" fill="#fbfcfe" d="M 469.5,436.5 C 473.5,436.5 477.5,436.5 481.5,436.5C 472.433,440.872 463.767,446.039 455.5,452C 448.624,459.612 442.624,467.779 437.5,476.5C 437.062,464.837 436.728,453.17 436.5,441.5C 436.5,440.167 436.5,438.833 436.5,437.5C 447.679,437.828 458.679,437.495 469.5,436.5 Z"/></g>
<g><path style="opacity:1" fill="#f8fbfb" d="M 710.5,438.5 C 702.573,448.019 695.907,458.353 690.5,469.5C 689.74,460.805 688.74,452.139 687.5,443.5C 695.225,442.034 702.892,440.368 710.5,438.5 Z"/></g>
<g><path style="opacity:1" fill="#ebebf3" d="M 386.5,450.5 C 391.286,454.627 392.62,459.627 390.5,465.5C 389.632,460.359 388.298,455.359 386.5,450.5 Z"/></g>
<g><path style="opacity:1" fill="#fbfcfd" d="M 1216.5,462.5 C 1232.67,466.555 1248.84,470.555 1265,474.5C 1261.3,485.772 1257.46,497.106 1253.5,508.5C 1249.6,502.392 1245.44,496.392 1241,490.5C 1232.25,481.591 1224.09,472.258 1216.5,462.5 Z"/></g>
<g><path style="opacity:1" fill="#3d71c7" d="M 101.5,464.5 C 95.6756,472.137 89.8422,479.803 84,487.5C 73.8125,501.208 66.3125,516.208 61.5,532.5C 59.7478,509.506 67.7478,490.673 85.5,476C 90.7155,471.903 96.0489,468.069 101.5,464.5 Z"/></g>
<g><path style="opacity:1" fill="#f1f7fd" d="M 624.5,465.5 C 632.504,469.169 640.504,472.836 648.5,476.5C 648.663,478.857 648.497,481.19 648,483.5C 640.188,477.359 632.355,471.359 624.5,465.5 Z"/></g>
<g><path style="opacity:1" fill="#336fca" d="M 365.5,498.5 C 362.481,503.698 358.148,507.532 352.5,510C 302.125,515.608 252.792,525.941 204.5,541C 185.106,547.364 167.106,556.364 150.5,568C 146.224,571.767 142.557,575.934 139.5,580.5C 133.34,568.847 131.507,556.514 134,543.5C 149.772,531.695 165.272,519.528 180.5,507C 212.543,505.886 244.543,503.886 276.5,501C 282.744,498.53 289.077,496.363 295.5,494.5C 313.082,498.941 330.916,501.941 349,503.5C 354.768,502.744 360.268,501.078 365.5,498.5 Z"/></g>
<g><path style="opacity:1" fill="#f8fbfc" d="M 975.5,500.5 C 982.888,500.253 990.221,500.753 997.5,502C 1004.65,503.823 1010.81,507.323 1016,512.5C 1021.93,523.098 1025.43,534.431 1026.5,546.5C 1020.24,538.399 1013.74,530.399 1007,522.5C 998.466,512.097 987.966,504.764 975.5,500.5 Z"/></g>
<g><path style="opacity:1" fill="#85afe2" d="M 407.5,504.5 C 406.833,499.167 406.167,493.833 405.5,488.5C 405.783,487.711 406.283,487.044 407,486.5C 407.499,492.491 407.666,498.491 407.5,504.5 Z"/></g>
<g><path style="opacity:1" fill="#f6fafb" d="M 1113.5,508.5 C 1114.08,522.667 1114.75,536.834 1115.5,551C 1115.41,557.201 1114.91,563.368 1114,569.5C 1109.55,581.419 1104.05,592.752 1097.5,603.5C 1100.01,582.468 1102.84,561.468 1106,540.5C 1107.59,529.492 1110.09,518.825 1113.5,508.5 Z"/></g>
<g><path style="opacity:1" fill="#416fc3" d="M 153.5,613.5 C 160.793,615.727 168.126,617.894 175.5,620C 190.65,622.468 205.65,624.968 220.5,627.5C 218.167,627.5 215.833,627.5 213.5,627.5C 195.205,625.845 176.872,624.679 158.5,624C 156.927,620.445 155.261,616.945 153.5,613.5 Z"/></g>
<g><path style="opacity:1" fill="#5d61a6" d="M 213.5,627.5 C 215.833,627.5 218.167,627.5 220.5,627.5C 235.264,628.655 249.598,631.322 263.5,635.5C 246.748,632.538 230.081,629.871 213.5,627.5 Z"/></g>
<g><path style="opacity:1" fill="#7d8bc0" d="M 263.5,635.5 C 266.228,635.171 268.562,635.837 270.5,637.5C 267.848,637.59 265.515,636.924 263.5,635.5 Z"/></g>
<g><path style="opacity:1" fill="#5c61a4" d="M 270.5,637.5 C 272.553,637.402 274.22,638.069 275.5,639.5C 273.447,639.598 271.78,638.931 270.5,637.5 Z"/></g>
<g><path style="opacity:1" fill="#edf5f5" d="M 973.5,647.5 C 966.022,645.053 959.689,646.72 954.5,652.5C 955.242,650.574 956.242,648.741 957.5,647C 962.06,643.826 967.06,642.826 972.5,644C 973.337,645.011 973.67,646.178 973.5,647.5 Z"/></g>
<g><path style="opacity:1" fill="#3471cc" d="M 275.5,639.5 C 299.449,649.636 321.782,662.47 342.5,678C 357.126,689.624 371.459,701.624 385.5,714C 406.575,733.699 414.409,757.865 409,786.5C 406.983,805.884 400.983,823.884 391,840.5C 384.717,847.789 377.551,853.956 369.5,859C 343.462,874.685 316.129,887.685 287.5,898C 240.974,909.773 194.308,910.44 147.5,900C 120.038,894.735 93.7046,886.068 68.5,874C 48.5417,863.852 41.0417,847.685 46,825.5C 49.8696,806.254 59.0362,790.087 73.5,777C 82.6701,772.496 92.3367,769.496 102.5,768C 120.117,766.132 137.784,765.298 155.5,765.5C 178.166,766.2 200.833,766.367 223.5,766C 228.852,765.479 234.185,764.813 239.5,764C 246.253,763.621 248.419,760.455 246,754.5C 243.5,752.667 241,750.833 238.5,749C 222.645,741.003 206.645,733.503 190.5,726.5C 206.82,727.307 223.153,727.64 239.5,727.5C 248.406,734.901 256.906,742.901 265,751.5C 269.591,756.893 270.591,762.893 268,769.5C 261.688,777.586 253.521,783.086 243.5,786C 234.4,787.546 225.4,788.713 216.5,789.5C 184.498,789.333 152.498,789.5 120.5,790C 87.8346,789.508 69.168,805.342 64.5,837.5C 64.237,844.137 66.5703,849.637 71.5,854C 77.3625,857.932 83.6959,860.765 90.5,862.5C 99.4755,868.547 109.476,871.214 120.5,870.5C 171.194,883.292 222.527,885.792 274.5,878C 284.626,875.069 294.626,871.736 304.5,868C 322.439,859.699 339.772,850.365 356.5,840C 373.227,829.066 382.727,813.566 385,793.5C 392.373,761.783 383.54,735.783 358.5,715.5C 342.442,690.277 321.109,670.777 294.5,657C 289.875,649.204 283.541,643.37 275.5,639.5 Z"/></g>
<g><path style="opacity:1" fill="#3371cb" d="M 973.5,647.5 C 972.983,655.577 971.816,663.577 970,671.5C 968.372,681.588 970.372,690.922 976,699.5C 986.022,715.669 996.189,731.669 1006.5,747.5C 1007.71,772.294 1010.21,796.961 1014,821.5C 1016.7,838.59 1022.36,854.59 1031,869.5C 1043.46,883.488 1058.96,892.488 1077.5,896.5C 1080.52,898.671 1083.68,900.671 1087,902.5C 1090.04,907.419 1093.21,912.252 1096.5,917C 1108.73,925.965 1122.4,929.632 1137.5,928C 1151.78,924.856 1164.78,919.023 1176.5,910.5C 1183.6,910.199 1190.6,909.366 1197.5,908C 1197.83,907.667 1198.17,907.333 1198.5,907C 1195.38,904.141 1192.38,901.308 1189.5,898.5C 1192.46,894.251 1194.62,889.584 1196,884.5C 1198.64,874.625 1200.64,864.625 1202,854.5C 1201.6,832.507 1201.6,810.507 1202,788.5C 1205.09,765.069 1212.26,743.069 1223.5,722.5C 1216.05,748.64 1213.55,775.307 1216,802.5C 1218.59,833.455 1219.59,864.455 1219,895.5C 1218.14,917.343 1207.3,931.176 1186.5,937C 1136.72,944.703 1089.38,937.036 1044.5,914C 1039.83,911 1035.17,908 1030.5,905C 1016.33,891.51 1005.5,875.677 998,857.5C 979.244,809.474 966.91,759.808 961,708.5C 947.466,735.555 935.632,763.221 925.5,791.5C 931.541,764.841 935.375,737.841 937,710.5C 941.598,690.77 947.431,671.437 954.5,652.5C 959.689,646.72 966.022,645.053 973.5,647.5 Z"/></g>
<g><path style="opacity:1" fill="#d1e5e7" d="M 722.5,665.5 C 728.087,678.357 730.42,691.69 729.5,705.5C 729.665,702.482 729.498,699.482 729,696.5C 726.693,686.179 724.527,675.845 722.5,665.5 Z"/></g>
<g><path style="opacity:1" fill="#f2f7fc" d="M 655.5,694.5 C 659.612,702.241 657.279,706.741 648.5,708C 644.848,708.499 641.182,708.665 637.5,708.5C 636.761,708.631 636.094,708.464 635.5,708C 642.714,704.233 649.38,699.733 655.5,694.5 Z"/></g>
<g><path style="opacity:1" fill="#fbfafc" d="M 358.5,715.5 C 383.54,735.783 392.373,761.783 385,793.5C 382.727,813.566 373.227,829.066 356.5,840C 339.772,850.365 322.439,859.699 304.5,868C 294.626,871.736 284.626,875.069 274.5,878C 222.527,885.792 171.194,883.292 120.5,870.5C 122.808,870.086 125.142,869.753 127.5,869.5C 139.101,871.397 150.768,871.897 162.5,871C 163.354,869.978 164.354,869.145 165.5,868.5C 169.96,870.616 174.627,872.116 179.5,873C 196.906,874.035 214.239,873.368 231.5,871C 280.03,867.148 320.863,847.648 354,812.5C 358.054,807.058 361.054,801.058 363,794.5C 370.3,767.54 368.8,741.207 358.5,715.5 Z"/></g>
<g><path style="opacity:1" fill="#fbfafb" d="M 244.5,789.5 C 235.167,789.5 225.833,789.5 216.5,789.5C 225.4,788.713 234.4,787.546 243.5,786C 253.521,783.086 261.688,777.586 268,769.5C 270.591,762.893 269.591,756.893 265,751.5C 256.906,742.901 248.406,734.901 239.5,727.5C 245.931,724.801 252.264,724.968 258.5,728C 265.011,732.423 271.345,737.089 277.5,742C 283.826,746.645 288.16,752.645 290.5,760C 289.755,762.992 288.588,765.826 287,768.5C 275.637,781.265 261.471,788.265 244.5,789.5 Z"/></g>
<g><path style="opacity:1" fill="#fbfdfd" d="M 1006.5,747.5 C 1008.89,751.278 1011.06,755.278 1013,759.5C 1017.67,774.167 1022.33,788.833 1027,803.5C 1034.14,820.582 1041.47,837.582 1049,854.5C 1056.77,869.749 1066.27,883.749 1077.5,896.5C 1058.96,892.488 1043.46,883.488 1031,869.5C 1022.36,854.59 1016.7,838.59 1014,821.5C 1010.21,796.961 1007.71,772.294 1006.5,747.5 Z"/></g>
<g><path style="opacity:1" fill="#f9f5f7" d="M 216.5,789.5 C 225.833,789.5 235.167,789.5 244.5,789.5C 228.672,790.331 212.672,790.831 196.5,791C 194.167,791.333 191.833,791.667 189.5,792C 187.747,794.2 185.414,795.367 182.5,795.5C 173.8,796.743 165.133,798.076 156.5,799.5C 144.751,797.764 133.085,795.597 121.5,793C 116.079,792.161 110.746,792.494 105.5,794C 98.956,797.216 92.956,801.216 87.5,806C 69.312,825.82 70.312,844.653 90.5,862.5C 83.6959,860.765 77.3625,857.932 71.5,854C 66.5703,849.637 64.237,844.137 64.5,837.5C 69.168,805.342 87.8346,789.508 120.5,790C 152.498,789.5 184.498,789.333 216.5,789.5 Z"/></g>
<g><path style="opacity:1" fill="#6eaab2" d="M 925.5,792.5 C 925.706,795.495 925.04,798.162 923.5,800.5C 923.565,797.572 924.232,794.905 925.5,792.5 Z"/></g>
<g><path style="opacity:1" fill="#3371cb" d="M 919.5,829.5 C 920.158,830.793 920.492,832.293 920.5,834C 919.352,849.481 918.519,864.981 918,880.5C 916.875,896.687 912.208,911.687 904,925.5C 894.176,935.499 882.342,941.999 868.5,945C 842.229,951.507 815.563,953.84 788.5,952C 778.067,950.871 769.9,946.038 764,937.5C 761.746,933.993 759.746,930.327 758,926.5C 753.774,911.923 751.607,897.257 751.5,882.5C 759.689,895.54 766.855,909.207 773,923.5C 775.412,927.916 778.578,931.749 782.5,935C 791.418,940.417 801.085,943.417 811.5,944C 830.274,946.158 847.274,941.825 862.5,931C 880.672,913.172 896.172,893.339 909,871.5C 913.843,857.811 917.343,843.811 919.5,829.5 Z"/></g>
<g><path style="opacity:1" fill="#f7fafd" d="M 519.5,837.5 C 523.416,857.397 527.749,877.231 532.5,897C 532.167,897.5 531.833,898 531.5,898.5C 509.884,896.977 488.217,895.811 466.5,895C 456.103,894.486 446.437,891.653 437.5,886.5C 442.919,880.578 445.586,873.578 445.5,865.5C 455.677,886.908 472.011,893.408 494.5,885C 505.123,881.379 511.956,874.212 515,863.5C 515.744,854.561 517.244,845.895 519.5,837.5 Z"/></g>
<g><path style="opacity:1" fill="#f1f7f8" d="M 1189.5,898.5 C 1192.38,901.308 1195.38,904.141 1198.5,907C 1198.17,907.333 1197.83,907.667 1197.5,908C 1190.6,909.366 1183.6,910.199 1176.5,910.5C 1180.81,906.528 1185.14,902.528 1189.5,898.5 Z"/></g>
</svg>
