<?xml version="1.0" encoding="UTF-8"?>
<!DOCTYPE svg PUBLIC "-//W3C//DTD SVG 1.1//EN" "http://www.w3.org/Graphics/SVG/1.1/DTD/svg11.dtd">
<svg xmlns="http://www.w3.org/2000/svg" version="1.1" width="2722px" height="1022px" style="shape-rendering:geometricPrecision; text-rendering:geometricPrecision; image-rendering:optimizeQuality; fill-rule:evenodd; clip-rule:evenodd" xmlns:xlink="http://www.w3.org/1999/xlink">
<g><path style="opacity:1" fill="#3572cd" d="M 905.5,140.5 C 897.644,127.544 900.977,118.877 915.5,114.5C 936.606,113.856 957.606,112.023 978.5,109C 985.826,108.5 993.159,108.334 1000.5,108.5C 1000.65,103.425 1001.32,98.4246 1002.5,93.5C 1004.01,88.8044 1005.84,84.1377 1008,79.5C 1009.61,71.101 1008.11,63.4343 1003.5,56.5C 1002.98,52.4642 1000.98,49.2975 997.5,47C 989.823,43.7474 981.823,41.7474 973.5,41C 937.842,38.6036 903.175,43.2702 869.5,55C 863.524,56.984 858.69,60.484 855,65.5C 854.333,70.8333 854.333,76.1667 855,81.5C 855.705,84.4757 856.871,87.1423 858.5,89.5C 849.379,117.902 844.046,146.902 842.5,176.5C 841.31,143.816 839.977,111.149 838.5,78.5C 838.612,71.1397 839.112,63.8064 840,56.5C 843.445,49.0714 849.278,44.5714 857.5,43C 875.315,39.2578 893.315,36.5911 911.5,35C 937.554,34.1654 963.554,32.6654 989.5,30.5C 1006.03,28.8687 1015.87,36.2021 1019,52.5C 1023.92,73.2678 1023.59,93.9344 1018,114.5C 1013.9,122.311 1007.4,126.811 998.5,128C 982.773,129.183 967.106,130.85 951.5,133C 942.167,133.667 932.833,133.667 923.5,133C 918.012,132.504 912.845,131.004 908,128.5C 907.815,132.675 906.981,136.675 905.5,140.5 Z"/></g>
<g><path style="opacity:1" fill="#f7fafd" d="M 1003.5,56.5 C 996.096,49.2979 987.096,45.4645 976.5,45C 955.699,43.6535 935.033,44.6535 914.5,48C 889.72,53.8606 871.054,67.6939 858.5,89.5C 856.871,87.1423 855.705,84.4757 855,81.5C 854.333,76.1667 854.333,70.8333 855,65.5C 858.69,60.484 863.524,56.984 869.5,55C 903.175,43.2702 937.842,38.6036 973.5,41C 981.823,41.7474 989.823,43.7474 997.5,47C 1000.98,49.2975 1002.98,52.4642 1003.5,56.5 Z"/></g>
<g><path style="opacity:1" fill="#4597f7" d="M 1003.5,56.5 C 1008.11,63.4343 1009.61,71.101 1008,79.5C 1005.84,84.1377 1004.01,88.8044 1002.5,93.5C 1002.65,92.448 1002.48,91.448 1002,90.5C 999.222,93.8071 995.722,95.9738 991.5,97C 968.196,100.286 945.196,104.953 922.5,111C 919.826,111.67 917.493,112.837 915.5,114.5C 900.977,118.877 897.644,127.544 905.5,140.5C 908.191,149.944 909.191,159.611 908.5,169.5C 907.539,171.265 907.205,173.265 907.5,175.5C 935.542,175.486 963.209,178.653 990.5,185C 1017.43,193.019 1025.26,209.852 1014,235.5C 1010.56,239.441 1006.73,242.775 1002.5,245.5C 996.935,246.858 991.268,247.691 985.5,248C 984.956,248.717 984.289,249.217 983.5,249.5C 956.567,248.967 929.567,247.467 902.5,245C 900.206,249.215 898.706,253.715 898,258.5C 897.5,270.495 897.333,282.495 897.5,294.5C 920.207,292.912 942.873,293.412 965.5,296C 977.618,298.279 989.284,301.945 1000.5,307C 1013.56,316.152 1018.39,328.652 1015,344.5C 1013.33,347.985 1011.16,350.985 1008.5,353.5C 1004.3,356.759 999.97,359.759 995.5,362.5C 992.484,363.562 989.484,364.729 986.5,366C 982.404,365.994 978.404,366.16 974.5,366.5C 970.109,363.297 965.776,359.797 961.5,356C 950.475,354.059 939.475,354.392 928.5,357C 908.476,362.618 888.143,365.284 867.5,365C 862.516,364.34 858.183,362.34 854.5,359C 849.892,354.901 845.892,350.401 842.5,345.5C 837.896,336.779 834.229,327.613 831.5,318C 831.164,316.97 830.497,316.47 829.5,316.5C 830.185,311.905 830.018,307.238 829,302.5C 826.802,275.755 829.135,249.421 836,223.5C 837.806,218.554 840.139,213.888 843,209.5C 842.715,198.523 842.548,187.523 842.5,176.5C 844.046,146.902 849.379,117.902 858.5,89.5C 871.054,67.6939 889.72,53.8606 914.5,48C 935.033,44.6535 955.699,43.6535 976.5,45C 987.096,45.4645 996.096,49.2979 1003.5,56.5 Z"/></g>
<g><path style="opacity:1" fill="#3371cc" d="M 2601.5,197.5 C 2610.87,182.108 2619.87,166.442 2628.5,150.5C 2640.33,141.241 2648.49,129.241 2653,114.5C 2657.02,102.101 2661.18,89.7676 2665.5,77.5C 2658.87,76.3924 2652.21,75.7257 2645.5,75.5C 2643.25,65.754 2637.25,59.9206 2627.5,58C 2621.17,57.3333 2614.83,57.3333 2608.5,58C 2599.73,60.0903 2591.39,63.257 2583.5,67.5C 2581.86,67.7135 2580.36,67.3802 2579,66.5C 2577.99,68.0249 2577.49,69.6916 2577.5,71.5C 2565.42,81.7743 2556.58,94.441 2551,109.5C 2541.8,135.753 2534.64,162.42 2529.5,189.5C 2526.73,188.277 2524.06,186.777 2521.5,185C 2516.93,179.935 2512.59,174.769 2508.5,169.5C 2506.62,164.075 2504.46,158.741 2502,153.5C 2493.54,138.901 2485.37,124.234 2477.5,109.5C 2474.64,100.369 2472.64,91.036 2471.5,81.5C 2467.8,83.7323 2463.8,84.7323 2459.5,84.5C 2453.11,77.6393 2445.45,72.806 2436.5,70C 2420.72,69.3988 2410.06,76.5655 2404.5,91.5C 2398.98,92.9289 2393.98,95.4289 2389.5,99C 2385.54,103.563 2385.7,108.063 2390,112.5C 2396.04,118.703 2402.2,124.703 2408.5,130.5C 2409.9,132.255 2410.9,134.255 2411.5,136.5C 2418.21,152.179 2426.54,166.846 2436.5,180.5C 2441.09,190.688 2445.42,201.021 2449.5,211.5C 2434.13,194.627 2418.29,178.294 2402,162.5C 2398.21,154.028 2393.54,146.028 2388,138.5C 2382.23,128.292 2377.56,117.625 2374,106.5C 2373.33,102.5 2373.33,98.5 2374,94.5C 2376.08,90.421 2378.91,86.921 2382.5,84C 2412.21,65.3145 2444.55,56.6478 2479.5,58C 2483.9,58.7297 2486.73,61.2297 2488,65.5C 2488.33,73.8333 2488.67,82.1667 2489,90.5C 2491.27,100.043 2494.94,109.043 2500,117.5C 2507.08,129.335 2514.42,141.002 2522,152.5C 2528.2,128.241 2536.2,104.574 2546,81.5C 2550.73,69.8667 2557.56,59.7 2566.5,51C 2572.27,47.1599 2578.6,45.6599 2585.5,46.5C 2603.83,47.1851 2622.16,47.6851 2640.5,48C 2655.02,48.6916 2669.02,51.6916 2682.5,57C 2685.83,59.4912 2688.33,62.6578 2690,66.5C 2690.53,80.5822 2687.53,93.9156 2681,106.5C 2672.85,124.149 2663.18,140.816 2652,156.5C 2639.03,168.478 2625.19,179.311 2610.5,189C 2607.63,192.038 2604.63,194.871 2601.5,197.5 Z"/></g>
<g><path style="opacity:1" fill="#3870ca" d="M 263.5,123.5 C 272.16,118.856 276.16,111.523 275.5,101.5C 275.829,98.7718 275.163,96.4385 273.5,94.5C 270.655,86.8228 265.322,81.6562 257.5,79C 234.737,71.6195 211.404,67.9529 187.5,68C 185.939,68.3176 184.772,69.1509 184,70.5C 179.508,67.6728 174.675,65.5061 169.5,64C 160.806,63.2894 152.139,63.4561 143.5,64.5C 161.894,58.3273 180.894,56.1606 200.5,58C 228.642,60.0485 255.309,67.3818 280.5,80C 290.768,86.0503 294.268,94.8836 291,106.5C 287.49,116.522 283.157,126.188 278,135.5C 272.441,145.994 266.774,145.994 261,135.5C 260.333,133.5 260.333,131.5 261,129.5C 262.122,127.593 262.955,125.593 263.5,123.5 Z"/></g>
<g><path style="opacity:1" fill="#50ab64" d="M 2645.5,75.5 C 2647.88,102.3 2642.22,127.3 2628.5,150.5C 2619.87,166.442 2610.87,182.108 2601.5,197.5C 2598.51,202.13 2595.51,206.797 2592.5,211.5C 2591.02,213.094 2589.52,214.76 2588,216.5C 2584.45,246.574 2583.62,276.574 2585.5,306.5C 2585.69,316.933 2586.85,327.266 2589,337.5C 2594.54,354.45 2599.87,371.45 2605,388.5C 2606.72,397.832 2605.22,406.499 2600.5,414.5C 2596.35,418.319 2591.68,421.319 2586.5,423.5C 2584.1,424.727 2581.6,425.727 2579,426.5C 2581.62,441.537 2576.78,453.204 2564.5,461.5C 2551.22,466.846 2539.89,464.18 2530.5,453.5C 2525.41,439.217 2520.74,424.884 2516.5,410.5C 2513.45,397.644 2509.79,384.977 2505.5,372.5C 2489.21,317.949 2470.54,264.283 2449.5,211.5C 2445.42,201.021 2441.09,190.688 2436.5,180.5C 2433.29,171.741 2429.79,163.075 2426,154.5C 2420.91,148.613 2416.07,142.613 2411.5,136.5C 2410.9,134.255 2409.9,132.255 2408.5,130.5C 2405.64,122.899 2403.64,115.065 2402.5,107C 2402.99,101.786 2403.65,96.6198 2404.5,91.5C 2410.06,76.5655 2420.72,69.3988 2436.5,70C 2445.45,72.806 2453.11,77.6393 2459.5,84.5C 2465.53,92.8568 2471.53,101.19 2477.5,109.5C 2485.37,124.234 2493.54,138.901 2502,153.5C 2504.46,158.741 2506.62,164.075 2508.5,169.5C 2512.26,181.685 2516.59,193.685 2521.5,205.5C 2523.14,206.681 2524.8,206.681 2526.5,205.5C 2528.14,200.279 2529.14,194.946 2529.5,189.5C 2534.64,162.42 2541.8,135.753 2551,109.5C 2556.58,94.441 2565.42,81.7743 2577.5,71.5C 2579.85,70.6597 2581.85,69.3264 2583.5,67.5C 2591.39,63.257 2599.73,60.0903 2608.5,58C 2614.83,57.3333 2621.17,57.3333 2627.5,58C 2637.25,59.9206 2643.25,65.754 2645.5,75.5 Z"/></g>
<g><path style="opacity:1" fill="#3770ca" d="M 1380.5,382.5 C 1380.56,383.043 1380.89,383.376 1381.5,383.5C 1382.5,377.872 1382.83,372.206 1382.5,366.5C 1386.82,329.771 1390.15,292.938 1392.5,256C 1392.49,247.09 1391.65,238.257 1390,229.5C 1381.75,195.695 1377.42,161.362 1377,126.5C 1376.33,114.833 1376.33,103.167 1377,91.5C 1377.3,85.8143 1378.46,80.3143 1380.5,75C 1375.26,70.2764 1375.26,65.6097 1380.5,61C 1382.61,59.0929 1385.11,58.2596 1388,58.5C 1432.47,62.5198 1476.64,68.6864 1520.5,77C 1535.71,80.4677 1550.38,85.4677 1564.5,92C 1566,93.5 1567.5,95 1569,96.5C 1569.67,98.5 1569.67,100.5 1569,102.5C 1567.69,104.134 1566.86,105.968 1566.5,108C 1567.89,122.512 1567.72,137.012 1566,151.5C 1564.8,160.73 1561.3,168.897 1555.5,176C 1545.54,181.439 1534.87,184.105 1523.5,184C 1506.26,185.052 1489.09,184.552 1472,182.5C 1470.83,182.833 1469.67,183.167 1468.5,183.5C 1472.36,198.765 1482.03,204.932 1497.5,202C 1511.44,199.378 1525.44,197.211 1539.5,195.5C 1550.71,194.015 1558.54,198.348 1563,208.5C 1568.03,224.587 1570.53,241.087 1570.5,258C 1570.76,264.655 1569.93,271.155 1568,277.5C 1566.2,279.317 1564.03,280.484 1561.5,281C 1540.09,285.318 1518.42,287.984 1496.5,289C 1486.17,289.5 1475.84,289.666 1465.5,289.5C 1464.47,303.484 1464.3,317.484 1465,331.5C 1472.71,355.927 1480.71,380.261 1489,404.5C 1489.91,410.612 1489.58,416.612 1488,422.5C 1486.08,425.438 1483.58,426.105 1480.5,424.5C 1480.26,425.247 1479.93,426.08 1479.5,427C 1448.25,426.094 1417.59,421.428 1387.5,413C 1375.94,407.382 1367.94,398.549 1363.5,386.5C 1367.74,379.072 1373.4,377.738 1380.5,382.5 Z"/></g>
<g><path style="opacity:1" fill="#d3362e" d="M 273.5,94.5 C 273.41,97.1522 274.076,99.4855 275.5,101.5C 276.16,111.523 272.16,118.856 263.5,123.5C 261.278,124.688 258.945,125.688 256.5,126.5C 252.73,128.926 248.563,129.926 244,129.5C 232.027,128.339 220.194,126.339 208.5,123.5C 204.199,125.1 199.865,126.6 195.5,128C 172.568,130.589 149.568,132.255 126.5,133C 115.357,141.309 104.357,149.809 93.5,158.5C 91.6484,167.733 92.9817,176.4 97.5,184.5C 100.284,192.734 103.617,200.734 107.5,208.5C 108.086,210.84 109.086,213.007 110.5,215C 125.164,216.25 139.831,217.416 154.5,218.5C 155.167,218.5 155.833,218.5 156.5,218.5C 159.946,219.687 163.613,220.354 167.5,220.5C 178.663,221.956 189.329,224.956 199.5,229.5C 202.987,232.836 205.987,236.669 208.5,241C 226.185,250.519 240.519,263.685 251.5,280.5C 260.316,301.186 260.816,322.186 253,343.5C 245.453,355.381 235.62,364.881 223.5,372C 197.271,386.516 169.104,393.683 139,393.5C 130.604,394.185 122.604,392.851 115,389.5C 111.581,391.814 107.748,392.814 103.5,392.5C 96.8181,391.906 90.1515,391.239 83.5,390.5C 74.9229,391.748 67.2562,389.748 60.5,384.5C 47.6294,371.598 47.2961,358.432 59.5,345C 64.0594,341.563 68.7261,338.396 73.5,335.5C 74.5,335.5 75.5,335.5 76.5,335.5C 86.2502,337.467 96.0836,339.134 106,340.5C 114.187,339.497 122.354,338.33 130.5,337C 131.328,336.085 132.328,335.419 133.5,335C 146.167,334.667 158.833,334.333 171.5,334C 185.01,332.833 195.51,326.666 203,315.5C 203.667,313.5 203.667,311.5 203,309.5C 195.378,299.708 185.878,292.375 174.5,287.5C 172.218,288.223 169.884,288.557 167.5,288.5C 156.19,289.569 144.856,289.569 133.5,288.5C 118.202,287.213 103.202,284.38 88.5,280C 83.5648,277.394 78.8981,274.394 74.5,271C 44.4317,236.573 33.4317,196.739 41.5,151.5C 48.4135,133.01 58.4135,116.344 71.5,101.5C 90.6876,80.2371 114.688,67.9038 143.5,64.5C 152.139,63.4561 160.806,63.2894 169.5,64C 174.675,65.5061 179.508,67.6728 184,70.5C 184.772,69.1509 185.939,68.3176 187.5,68C 211.404,67.9529 234.737,71.6195 257.5,79C 265.322,81.6562 270.655,86.8228 273.5,94.5 Z"/></g>
<g><path style="opacity:1" fill="#e0edf0" d="M 2583.5,67.5 C 2581.85,69.3264 2579.85,70.6597 2577.5,71.5C 2577.49,69.6916 2577.99,68.0249 2579,66.5C 2580.36,67.3802 2581.86,67.7135 2583.5,67.5 Z"/></g>
<g><path style="opacity:1" fill="#d3362e" d="M 1532.5,99.5 C 1537.55,103.878 1542.88,107.878 1548.5,111.5C 1554.56,117.287 1559.39,123.954 1563,131.5C 1563.68,144.312 1558.84,154.478 1548.5,162C 1540.52,165.548 1532.19,167.882 1523.5,169C 1508.73,170.108 1494.07,169.442 1479.5,167C 1476.8,166.235 1474.3,165.068 1472,163.5C 1468.5,167.827 1465.5,172.494 1463,177.5C 1462.5,185.493 1462.33,193.493 1462.5,201.5C 1468.18,201.334 1473.84,201.501 1479.5,202C 1484.15,203.658 1488.48,205.824 1492.5,208.5C 1499.2,206.434 1505.86,204.267 1512.5,202C 1522.1,200.779 1531.43,201.779 1540.5,205C 1554.96,216.692 1561.46,231.859 1560,250.5C 1558.34,254.492 1556.17,258.158 1553.5,261.5C 1549.09,265.254 1544.42,268.587 1539.5,271.5C 1514.18,281.555 1487.84,286.555 1460.5,286.5C 1459.5,311.851 1458.17,337.185 1456.5,362.5C 1455.87,371.281 1454.03,379.947 1451,388.5C 1440.38,399.091 1428.21,401.591 1414.5,396C 1410.13,392.488 1406.8,388.321 1404.5,383.5C 1401.96,368.968 1400.46,354.301 1400,339.5C 1396.15,281.382 1393.32,223.215 1391.5,165C 1391.23,145.465 1393.56,126.298 1398.5,107.5C 1405.31,94.0257 1415.64,84.359 1429.5,78.5C 1455.55,71.807 1480.89,73.9736 1505.5,85C 1514.87,89.3496 1523.87,94.1829 1532.5,99.5 Z"/></g>
<g><path style="opacity:1" fill="#fafcfd" d="M 2645.5,75.5 C 2652.21,75.7257 2658.87,76.3924 2665.5,77.5C 2661.18,89.7676 2657.02,102.101 2653,114.5C 2648.49,129.241 2640.33,141.241 2628.5,150.5C 2642.22,127.3 2647.88,102.3 2645.5,75.5 Z"/></g>
<g><path style="opacity:1" fill="#f9f8fa" d="M 1429.5,78.5 C 1415.64,84.359 1405.31,94.0257 1398.5,107.5C 1398.43,97.8224 1398.09,88.1557 1397.5,78.5C 1408.17,78.5 1418.83,78.5 1429.5,78.5 Z"/></g>
<g><path style="opacity:1" fill="#3371cc" d="M 381.5,173.5 C 380.777,153.642 380.443,133.642 380.5,113.5C 381.212,111.072 382.212,108.739 383.5,106.5C 380.572,105.516 377.572,105.183 374.5,105.5C 365.401,99.5057 355.401,98.0057 344.5,101C 334.042,107.066 328.542,116.233 328,128.5C 325.734,161.565 322.734,194.565 319,227.5C 318.333,231.833 318.333,236.167 319,240.5C 324.103,260.576 327.769,280.91 330,301.5C 331.672,304.656 333.505,307.656 335.5,310.5C 335.201,312.815 334.368,312.815 333,310.5C 332.493,311.996 332.993,313.163 334.5,314C 332.677,321.898 333.844,329.398 338,336.5C 340.698,340.025 343.531,343.358 346.5,346.5C 349.671,351.837 354.004,356.003 359.5,359C 365.607,361.869 371.941,364.036 378.5,365.5C 392.15,371.995 406.484,376.828 421.5,380C 426.833,380.667 432.167,380.667 437.5,380C 443.213,378.594 448.88,377.094 454.5,375.5C 476.658,378.737 498.658,377.904 520.5,373C 524.411,371.556 527.744,369.389 530.5,366.5C 539.97,360.919 545.47,352.586 547,341.5C 550.516,339.074 553.849,336.407 557,333.5C 562.486,324.522 566.319,314.856 568.5,304.5C 567.156,300.485 565.823,296.485 564.5,292.5C 566.601,268.694 569.767,245.027 574,221.5C 574.667,199.167 574.667,176.833 574,154.5C 571.196,145.567 567.363,137.233 562.5,129.5C 561.2,120.167 558.7,111.167 555,102.5C 554,101.5 553,100.5 552,99.5C 549.91,102.022 548.076,104.688 546.5,107.5C 542.394,104.571 538.394,101.404 534.5,98C 524.593,91.5298 513.926,89.8631 502.5,93C 493.345,96.4125 484.679,100.579 476.5,105.5C 471.727,105.878 468.393,108.212 466.5,112.5C 463.756,115.321 462.09,118.654 461.5,122.5C 463.149,128.081 463.982,133.748 464,139.5C 462.039,142.463 459.706,145.129 457,147.5C 455.392,150.382 454.059,153.382 453,156.5C 452.79,154.942 452.29,153.609 451.5,152.5C 451.333,140.495 451.5,128.495 452,116.5C 452.464,101.726 459.63,91.8924 473.5,87C 497.232,80.7995 521.232,79.7995 545.5,84C 560.704,85.4967 570.871,93.3301 576,107.5C 580.935,130.908 583.435,154.575 583.5,178.5C 582.873,222.959 580.373,267.292 576,311.5C 572.621,332.319 564.955,351.319 553,368.5C 546.023,377.144 537.189,382.977 526.5,386C 505.645,390.91 484.478,393.077 463,392.5C 431.169,392.429 399.669,389.263 368.5,383C 346.71,377.86 330.877,365.36 321,345.5C 311.565,322.426 306.565,298.426 306,273.5C 304.887,246.599 305.72,219.766 308.5,193C 305.683,185.775 304.849,178.275 306,170.5C 309.858,151.547 314.858,132.881 321,114.5C 324.922,103.78 331.755,95.6131 341.5,90C 353.118,85.8009 365.118,83.9676 377.5,84.5C 387.432,83.4531 396.765,85.2864 405.5,90C 407.941,92.6532 408.941,95.8199 408.5,99.5C 408.439,102.903 407.939,106.236 407,109.5C 400.218,127.064 392.885,144.398 385,161.5C 383.523,165.429 382.356,169.429 381.5,173.5 Z"/></g>
<g><path style="opacity:1" fill="#f1f6f9" d="M 2477.5,109.5 C 2471.53,101.19 2465.53,92.8568 2459.5,84.5C 2463.8,84.7323 2467.8,83.7323 2471.5,81.5C 2472.64,91.036 2474.64,100.369 2477.5,109.5 Z"/></g>
<g><path style="opacity:1" fill="#3572cc" d="M 745.5,262.5 C 755.634,257.266 765.301,251.266 774.5,244.5C 784.754,242.456 793.921,238.123 802,231.5C 804.842,227.644 806.509,223.31 807,218.5C 807.5,212.175 807.666,205.842 807.5,199.5C 808.572,187.794 807.072,176.46 803,165.5C 800.152,159.141 797.319,152.807 794.5,146.5C 792.519,135.874 788.353,126.207 782,117.5C 776.243,111.871 769.41,108.204 761.5,106.5C 745.327,97.3241 727.827,93.3241 709,94.5C 698.052,94.6394 687.219,95.8061 676.5,98C 670.767,100.354 666.433,104.187 663.5,109.5C 656.72,113.029 652.886,118.696 652,126.5C 647.906,151.993 646.406,177.66 647.5,203.5C 642.895,212.314 639.895,221.648 638.5,231.5C 638.507,234.592 639.007,237.592 640,240.5C 642.606,245.595 645.772,250.262 649.5,254.5C 649.767,260.838 650.1,267.171 650.5,273.5C 646.582,289.756 641.748,305.756 636,321.5C 632.193,338.817 629.693,356.317 628.5,374C 631.582,393.403 642.915,401.736 662.5,399C 665.521,397.82 668.521,396.654 671.5,395.5C 674.195,395.067 676.362,393.734 678,391.5C 681.099,386.875 683.432,381.875 685,376.5C 687.6,363.959 689.1,351.292 689.5,338.5C 693.272,319.348 698.772,300.681 706,282.5C 706.175,277.981 706.675,273.647 707.5,269.5C 709.964,274.419 710.964,279.752 710.5,285.5C 708.866,311.18 707.032,336.847 705,362.5C 703.476,373.943 699.809,384.609 694,394.5C 687.308,401.43 679.141,405.597 669.5,407C 660.507,408.249 651.507,409.416 642.5,410.5C 635.173,409.917 627.839,409.417 620.5,409C 606.569,409.103 602.402,402.936 608,390.5C 609.171,389.107 610.671,388.273 612.5,388C 617.488,387.913 622.488,388.08 627.5,388.5C 626.059,378.882 624.892,369.215 624,359.5C 620.267,275.447 621.267,191.447 627,107.5C 627.135,103.536 628.968,100.87 632.5,99.5C 636.281,100.283 639.614,101.95 642.5,104.5C 650.189,94.8181 660.189,88.9848 672.5,87C 705.932,81.1469 738.932,82.8135 771.5,92C 781.642,95.153 789.809,100.986 796,109.5C 807.173,131.018 815.173,153.685 820,177.5C 821.949,189.109 823.449,200.775 824.5,212.5C 823.449,240.729 808.782,256.896 780.5,261C 768.861,262.151 757.194,262.651 745.5,262.5 Z"/></g>
<g><path style="opacity:1" fill="#50ab64" d="M 1124.5,95.5 C 1136.77,101.971 1149.11,108.471 1161.5,115C 1179.27,131.374 1188.77,151.541 1190,175.5C 1188.85,179.447 1188.01,183.447 1187.5,187.5C 1183.23,203.62 1173.56,215.453 1158.5,223C 1154.75,224.989 1150.75,225.822 1146.5,225.5C 1147.6,233.367 1150.6,240.367 1155.5,246.5C 1166.94,268.611 1183.94,284.944 1206.5,295.5C 1217.08,305.316 1225.75,316.649 1232.5,329.5C 1231.83,334.193 1230,338.526 1227,342.5C 1222.9,347.104 1218.4,351.104 1213.5,354.5C 1208.01,358.245 1202.01,360.912 1195.5,362.5C 1183.63,358.232 1172.3,352.898 1161.5,346.5C 1149.1,336.949 1137.1,326.782 1125.5,316C 1123.02,313.429 1120.02,311.929 1116.5,311.5C 1118.33,324.434 1118.83,337.434 1118,350.5C 1116.65,356.349 1113.82,361.349 1109.5,365.5C 1100.08,372.199 1090.08,373.199 1079.5,368.5C 1072.85,364.222 1068.35,358.222 1066,350.5C 1065.83,342.656 1065.33,334.989 1064.5,327.5C 1064.43,318.811 1063.93,310.145 1063,301.5C 1058.18,282.493 1056.18,263.159 1057,243.5C 1053.78,227.745 1050.95,211.912 1048.5,196C 1049.38,187.747 1050.72,179.58 1052.5,171.5C 1051.19,155.497 1051.52,139.497 1053.5,123.5C 1056.46,113.297 1060.8,103.631 1066.5,94.5C 1070.75,89.3579 1076.25,87.0245 1083,87.5C 1097.28,88.0566 1111.11,90.7233 1124.5,95.5 Z"/></g>
<g><path style="opacity:1" fill="#4596f7" d="M 546.5,107.5 C 551.836,114.842 557.169,122.175 562.5,129.5C 567.363,137.233 571.196,145.567 574,154.5C 574.667,176.833 574.667,199.167 574,221.5C 569.767,245.027 566.601,268.694 564.5,292.5C 565.823,296.485 567.156,300.485 568.5,304.5C 566.319,314.856 562.486,324.522 557,333.5C 553.849,336.407 550.516,339.074 547,341.5C 545.47,352.586 539.97,360.919 530.5,366.5C 522.8,371.011 514.467,373.845 505.5,375C 493.648,375.165 481.815,374.665 470,373.5C 465.833,373.667 461.667,373.833 457.5,374C 456.263,374.232 455.263,374.732 454.5,375.5C 448.88,377.094 443.213,378.594 437.5,380C 432.167,380.667 426.833,380.667 421.5,380C 406.484,376.828 392.15,371.995 378.5,365.5C 378.938,365.565 379.272,365.399 379.5,365C 376.272,363.437 374.105,360.937 373,357.5C 368.452,353.194 362.952,351.027 356.5,351C 352.836,349.998 349.669,348.164 347,345.5C 346.601,345.728 346.435,346.062 346.5,346.5C 343.531,343.358 340.698,340.025 338,336.5C 333.844,329.398 332.677,321.898 334.5,314C 332.993,313.163 332.493,311.996 333,310.5C 334.368,312.815 335.201,312.815 335.5,310.5C 333.505,307.656 331.672,304.656 330,301.5C 327.769,280.91 324.103,260.576 319,240.5C 318.333,236.167 318.333,231.833 319,227.5C 322.734,194.565 325.734,161.565 328,128.5C 328.542,116.233 334.042,107.066 344.5,101C 355.401,98.0057 365.401,99.5057 374.5,105.5C 374.062,105.435 373.728,105.601 373.5,106C 375.966,108.479 378.299,110.979 380.5,113.5C 380.443,133.642 380.777,153.642 381.5,173.5C 381.203,183.458 379.536,193.125 376.5,202.5C 369.482,215.298 368.649,228.631 374,242.5C 375.686,244.919 378.019,245.919 381,245.5C 382.986,245.431 384.486,244.765 385.5,243.5C 391.564,246.03 397.564,248.863 403.5,252C 410.062,254.443 416.062,253.443 421.5,249C 428.588,242.654 434.088,235.154 438,226.5C 443.482,210.938 446.815,194.938 448,178.5C 450.912,170.074 452.078,161.408 451.5,152.5C 452.29,153.609 452.79,154.942 453,156.5C 454.059,153.382 455.392,150.382 457,147.5C 459.706,145.129 462.039,142.463 464,139.5C 463.982,133.748 463.149,128.081 461.5,122.5C 462.09,118.654 463.756,115.321 466.5,112.5C 469.842,110.164 473.175,107.831 476.5,105.5C 484.679,100.579 493.345,96.4125 502.5,93C 513.926,89.8631 524.593,91.5298 534.5,98C 538.394,101.404 542.394,104.571 546.5,107.5 Z"/></g>
<g><path style="opacity:1" fill="#f6f9fd" d="M 1002.5,93.5 C 1001.32,98.4246 1000.65,103.425 1000.5,108.5C 993.159,108.334 985.826,108.5 978.5,109C 957.606,112.023 936.606,113.856 915.5,114.5C 917.493,112.837 919.826,111.67 922.5,111C 945.196,104.953 968.196,100.286 991.5,97C 995.722,95.9738 999.222,93.8071 1002,90.5C 1002.48,91.448 1002.65,92.448 1002.5,93.5 Z"/></g>
<g><path style="opacity:1" fill="#3472cb" d="M 1066.5,94.5 C 1060.8,103.631 1056.46,113.297 1053.5,123.5C 1053.13,115.097 1053.63,106.764 1055,98.5C 1057.34,92.4634 1061.17,91.1301 1066.5,94.5 Z"/></g>
<g><path style="opacity:1" fill="#f8fbfc" d="M 2404.5,91.5 C 2403.65,96.6198 2402.99,101.786 2402.5,107C 2403.64,115.065 2405.64,122.899 2408.5,130.5C 2402.2,124.703 2396.04,118.703 2390,112.5C 2385.7,108.063 2385.54,103.563 2389.5,99C 2393.98,95.4289 2398.98,92.9289 2404.5,91.5 Z"/></g>
<g><path style="opacity:1" fill="#fbed51" d="M 761.5,106.5 C 774.735,118.061 785.735,131.395 794.5,146.5C 797.319,152.807 800.152,159.141 803,165.5C 807.072,176.46 808.572,187.794 807.5,199.5C 801.157,217.826 790.157,232.826 774.5,244.5C 765.301,251.266 755.634,257.266 745.5,262.5C 741.078,263.697 736.744,265.197 732.5,267C 724.5,267.333 716.5,267.667 708.5,268C 707.944,268.383 707.611,268.883 707.5,269.5C 706.675,273.647 706.175,277.981 706,282.5C 698.772,300.681 693.272,319.348 689.5,338.5C 684.854,352.019 682.021,366.019 681,380.5C 678.825,386.165 675.659,391.165 671.5,395.5C 668.521,396.654 665.521,397.82 662.5,399C 642.915,401.736 631.582,393.403 628.5,374C 629.693,356.317 632.193,338.817 636,321.5C 641.748,305.756 646.582,289.756 650.5,273.5C 652.011,269.514 653.344,265.348 654.5,261C 653.749,258.088 652.082,255.921 649.5,254.5C 645.772,250.262 642.606,245.595 640,240.5C 639.007,237.592 638.507,234.592 638.5,231.5C 639.895,221.648 642.895,212.314 647.5,203.5C 648.117,203.389 648.617,203.056 649,202.5C 648.757,180.022 650.424,157.688 654,135.5C 655.887,126.338 659.053,117.672 663.5,109.5C 666.433,104.187 670.767,100.354 676.5,98C 687.219,95.8061 698.052,94.6394 709,94.5C 727.827,93.3241 745.327,97.3241 761.5,106.5 Z"/></g>
<g><path style="opacity:1" fill="#3774cb" d="M 1124.5,95.5 C 1142.11,98.7532 1158.11,105.587 1172.5,116C 1181.75,124.579 1188.59,134.746 1193,146.5C 1194.67,160.799 1192.84,174.466 1187.5,187.5C 1188.01,183.447 1188.85,179.447 1190,175.5C 1188.77,151.541 1179.27,131.374 1161.5,115C 1149.11,108.471 1136.77,101.971 1124.5,95.5 Z"/></g>
<g><path style="opacity:1" fill="#eeb5b4" d="M 273.5,94.5 C 275.163,96.4385 275.829,98.7718 275.5,101.5C 274.076,99.4855 273.41,97.1522 273.5,94.5 Z"/></g>
<g><path style="opacity:1" fill="#f4f8fd" d="M 562.5,129.5 C 557.169,122.175 551.836,114.842 546.5,107.5C 548.076,104.688 549.91,102.022 552,99.5C 553,100.5 554,101.5 555,102.5C 558.7,111.167 561.2,120.167 562.5,129.5 Z"/></g>
<g><path style="opacity:1" fill="#f6f1f4" d="M 1532.5,99.5 C 1537.48,101.654 1542.48,103.821 1547.5,106C 1548.41,107.699 1548.74,109.533 1548.5,111.5C 1542.88,107.878 1537.55,103.878 1532.5,99.5 Z"/></g>
<g><path style="opacity:1" fill="#3e70c6" d="M 71.5,101.5 C 58.4135,116.344 48.4135,133.01 41.5,151.5C 40.3228,134.018 46.6562,119.851 60.5,109C 63.8777,105.985 67.5444,103.485 71.5,101.5 Z"/></g>
<g><path style="opacity:1" fill="#e6effa" d="M 374.5,105.5 C 377.572,105.183 380.572,105.516 383.5,106.5C 382.212,108.739 381.212,111.072 380.5,113.5C 378.299,110.979 375.966,108.479 373.5,106C 373.728,105.601 374.062,105.435 374.5,105.5 Z"/></g>
<g><path style="opacity:1" fill="#f6f9f8" d="M 761.5,106.5 C 769.41,108.204 776.243,111.871 782,117.5C 788.353,126.207 792.519,135.874 794.5,146.5C 785.735,131.395 774.735,118.061 761.5,106.5 Z"/></g>
<g><path style="opacity:1" fill="#cbe0f8" d="M 476.5,105.5 C 473.175,107.831 469.842,110.164 466.5,112.5C 468.393,108.212 471.727,105.878 476.5,105.5 Z"/></g>
<g><path style="opacity:1" fill="#f0f4f9" d="M 663.5,109.5 C 659.053,117.672 655.887,126.338 654,135.5C 650.424,157.688 648.757,180.022 649,202.5C 648.617,203.056 648.117,203.389 647.5,203.5C 646.406,177.66 647.906,151.993 652,126.5C 652.886,118.696 656.72,113.029 663.5,109.5 Z"/></g>
<g><path style="opacity:1" fill="#3572cc" d="M 1718.5,178.5 C 1713.01,166.032 1706.35,154.199 1698.5,143C 1691.11,137.205 1682.78,134.205 1673.5,134C 1674.5,135.667 1675.83,137 1677.5,138C 1677,138.167 1676.5,138.333 1676,138.5C 1672.38,136.274 1668.55,134.44 1664.5,133C 1661.83,132.333 1659.17,132.333 1656.5,133C 1645.62,139.22 1636.79,147.386 1630,157.5C 1636.13,151.77 1642.8,146.77 1650,142.5C 1650.64,144.265 1650.47,145.932 1649.5,147.5C 1644.23,149.803 1639.23,152.636 1634.5,156C 1632.77,157.789 1632.1,159.956 1632.5,162.5C 1629.63,166.898 1627.3,171.564 1625.5,176.5C 1625.55,181.015 1625.72,185.681 1626,190.5C 1626.73,193.529 1627.57,196.529 1628.5,199.5C 1616.11,265.042 1607.61,331.042 1603,397.5C 1608.19,419.514 1621.36,426.347 1642.5,418C 1648.91,414.694 1653.08,409.528 1655,402.5C 1659.11,389.378 1662.28,376.045 1664.5,362.5C 1668.12,377.841 1669.29,393.507 1668,409.5C 1666.11,419.055 1660.28,423.888 1650.5,424C 1639.12,424.856 1627.79,424.522 1616.5,423C 1613.4,421.561 1610.56,419.727 1608,417.5C 1603.47,429.207 1596.14,431.541 1586,424.5C 1585.33,414.471 1585.67,404.471 1587,394.5C 1592.64,368.624 1597.64,342.624 1602,316.5C 1602.67,296.5 1602.67,276.5 1602,256.5C 1599.96,235.206 1599.29,213.873 1600,192.5C 1601.14,169.699 1610.98,151.866 1629.5,139C 1640.02,132.238 1651.02,126.238 1662.5,121C 1685.71,110.726 1701.88,117.226 1711,140.5C 1714.04,153.072 1716.54,165.739 1718.5,178.5 Z"/></g>
<g><path style="opacity:1" fill="#3472cc" d="M 2314.5,183.5 C 2312.16,170.072 2310.66,156.405 2310,142.5C 2308.82,139.479 2307.65,136.479 2306.5,133.5C 2305.17,124.004 2300.17,117.17 2291.5,113C 2270.24,105.875 2249.57,107.208 2229.5,117C 2222.33,123.167 2218.16,131 2217,140.5C 2215.95,145.448 2215.45,150.448 2215.5,155.5C 2208.68,171.448 2204.68,188.115 2203.5,205.5C 2200.55,206.468 2197.55,206.634 2194.5,206C 2193.87,205.25 2193.37,204.416 2193,203.5C 2195.66,228.423 2197.99,253.423 2200,278.5C 2201,298.653 2201.5,318.819 2201.5,339C 2200.94,376.172 2200.11,413.339 2199,450.5C 2195.68,461.146 2188.52,467.646 2177.5,470C 2156.57,476.584 2135.24,478.584 2113.5,476C 2107.33,473.833 2103.17,469.667 2101,463.5C 2099.11,454.769 2098.28,445.936 2098.5,437C 2100.53,402.799 2103.03,368.632 2106,334.5C 2107.45,307.248 2105.45,280.248 2100,253.5C 2095.46,229.799 2090.79,206.132 2086,182.5C 2084.77,173.191 2084.43,163.858 2085,154.5C 2086.35,150.487 2089.01,147.82 2093,146.5C 2096.29,148.782 2099.29,151.449 2102,154.5C 2106.77,190.883 2110.6,227.217 2113.5,263.5C 2114.18,311.874 2115.68,360.207 2118,408.5C 2109.27,418.986 2107.27,430.653 2112,443.5C 2113.69,446.883 2115.85,449.883 2118.5,452.5C 2118.17,456.884 2118.51,461.217 2119.5,465.5C 2120.1,462.124 2121.43,459.124 2123.5,456.5C 2130.48,461.196 2138.14,462.696 2146.5,461C 2151.79,459.354 2156.79,457.187 2161.5,454.5C 2178.34,455.163 2188.17,447.163 2191,430.5C 2193.09,420.951 2193.92,411.284 2193.5,401.5C 2200.53,370.842 2202.36,339.842 2199,308.5C 2196.74,276.344 2193.07,244.344 2188,212.5C 2185.36,195.275 2181.69,178.275 2177,161.5C 2173.41,149.137 2166.91,138.637 2157.5,130C 2149.04,124.219 2139.71,121.553 2129.5,122C 2122.54,124.482 2116.54,128.315 2111.5,133.5C 2109.6,133.738 2108.26,134.738 2107.5,136.5C 2100.36,140.124 2092.69,141.291 2084.5,140C 2083,138.5 2081.5,137 2080,135.5C 2078.36,139.637 2075.53,142.637 2071.5,144.5C 2070.36,147.399 2069.69,150.399 2069.5,153.5C 2064.58,145.756 2057.92,139.923 2049.5,136C 2034.09,133.358 2021.26,137.858 2011,149.5C 2006.28,156.276 2002.61,163.609 2000,171.5C 1996.46,182.44 1993.13,193.44 1990,204.5C 1982.51,216.662 1973.51,227.662 1963,237.5C 1959.17,242.497 1955.83,247.83 1953,253.5C 1948.85,266.762 1945.02,280.095 1941.5,293.5C 1937.5,298.167 1933.17,302.5 1928.5,306.5C 1924.26,306.815 1920.43,305.815 1917,303.5C 1906.1,289.453 1896.26,274.786 1887.5,259.5C 1884.85,248.902 1882.52,238.235 1880.5,227.5C 1881.67,219.796 1883.17,212.129 1885,204.5C 1885.59,198.507 1886.09,192.507 1886.5,186.5C 1886.75,182.259 1885.91,178.259 1884,174.5C 1878.72,163.559 1871.56,154.059 1862.5,146C 1855.07,141.404 1847.73,141.571 1840.5,146.5C 1834.81,146.532 1829.14,146.866 1823.5,147.5C 1823.5,153.167 1823.5,158.833 1823.5,164.5C 1819.92,173.817 1817.75,183.483 1817,193.5C 1816.21,209.185 1816.38,224.852 1817.5,240.5C 1814.47,246.767 1812.64,253.434 1812,260.5C 1811.33,307.167 1811.33,353.833 1812,400.5C 1813.34,406.033 1815.18,411.366 1817.5,416.5C 1817.5,419.167 1817.5,421.833 1817.5,424.5C 1819.57,424.449 1821.4,425.115 1823,426.5C 1824.77,425.767 1826.6,425.433 1828.5,425.5C 1836.41,427.276 1844.08,426.609 1851.5,423.5C 1854.5,423.5 1857.5,423.5 1860.5,423.5C 1860.17,421.5 1859.83,419.5 1859.5,417.5C 1861.31,413.886 1863.14,410.22 1865,406.5C 1867.51,385.214 1868.18,363.881 1867,342.5C 1895.41,369.177 1926.91,373.344 1961.5,355C 1966,351.833 1970.5,348.667 1975,345.5C 1975.4,345.728 1975.57,346.062 1975.5,346.5C 1961.04,375.955 1937.71,386.455 1905.5,378C 1893.29,376.153 1881.79,372.32 1871,366.5C 1875.27,382.94 1878.94,399.607 1882,416.5C 1887.48,437.016 1879.65,446.85 1858.5,446C 1847.79,446.812 1837.13,446.478 1826.5,445C 1821.82,442.994 1817.16,440.994 1812.5,439C 1808.62,436.072 1806.12,432.239 1805,427.5C 1803.45,420.218 1802.12,412.884 1801,405.5C 1798.73,408.804 1795.56,410.304 1791.5,410C 1790.83,410.667 1790.17,411.333 1789.5,412C 1781.88,413.31 1774.21,414.143 1766.5,414.5C 1771.14,409.436 1773.97,403.436 1775,396.5C 1776.04,375.802 1773.71,355.468 1768,335.5C 1762.96,314.335 1757.46,293.335 1751.5,272.5C 1769.21,308.262 1785.04,344.929 1799,382.5C 1796.49,315.14 1797.16,247.807 1801,180.5C 1801.89,170.23 1803.39,160.063 1805.5,150C 1801.64,147.151 1798.98,143.484 1797.5,139C 1798.78,135.049 1801.45,132.383 1805.5,131C 1823.52,131.256 1841.52,132.256 1859.5,134C 1867.43,134.977 1875.1,136.977 1882.5,140C 1887.31,143.426 1890.81,147.926 1893,153.5C 1895.52,162.338 1897.18,171.338 1898,180.5C 1898.79,196.828 1899.46,213.162 1900,229.5C 1904.3,234.438 1907.3,240.104 1909,246.5C 1912.65,257.775 1915.98,269.108 1919,280.5C 1922.73,271.37 1927.73,263.037 1934,255.5C 1952.8,235.041 1970.46,213.708 1987,191.5C 1994.11,177.288 2000.11,162.622 2005,147.5C 2008.46,136.377 2015.63,128.877 2026.5,125C 2037.8,123.54 2049.13,123.207 2060.5,124C 2066.08,124.681 2071.41,126.181 2076.5,128.5C 2078.63,125.377 2081.3,122.877 2084.5,121C 2101.92,116.744 2119.58,115.41 2137.5,117C 2153.31,117.476 2164.81,124.642 2172,138.5C 2179.99,155.128 2185.99,172.461 2190,190.5C 2192.29,170.352 2196.62,150.685 2203,131.5C 2206.27,121.783 2211.44,113.283 2218.5,106C 2226.28,100.587 2234.95,97.9204 2244.5,98C 2260.59,96.8912 2276.59,97.5579 2292.5,100C 2300.69,101.51 2307.85,105.01 2314,110.5C 2316.22,114.271 2317.89,118.271 2319,122.5C 2319.77,143.012 2318.27,163.345 2314.5,183.5 Z"/></g>
<g><path style="opacity:1" fill="#fbfafc" d="M 2306.5,133.5 C 2295.24,125.356 2282.58,120.856 2268.5,120C 2256.37,117.935 2245.7,120.935 2236.5,129C 2228.11,136.87 2221.11,145.703 2215.5,155.5C 2215.45,150.448 2215.95,145.448 2217,140.5C 2218.16,131 2222.33,123.167 2229.5,117C 2249.57,107.208 2270.24,105.875 2291.5,113C 2300.17,117.17 2305.17,124.004 2306.5,133.5 Z"/></g>
<g><path style="opacity:1" fill="#d3362e" d="M 2306.5,133.5 C 2307.65,136.479 2308.82,139.479 2310,142.5C 2310.66,156.405 2312.16,170.072 2314.5,183.5C 2314.73,201.881 2313.9,220.214 2312,238.5C 2306.09,273.36 2301.26,308.36 2297.5,343.5C 2296.45,353.017 2296.62,362.684 2298,372.5C 2298.4,377.446 2299.74,382.113 2302,386.5C 2305.06,389.945 2308.89,391.612 2313.5,391.5C 2320.59,391.061 2327.26,389.394 2333.5,386.5C 2353.93,381.08 2374.6,380.08 2395.5,383.5C 2425.94,387.099 2442.1,404.099 2444,434.5C 2443.07,440.187 2440.24,444.687 2435.5,448C 2414.35,458.539 2392.02,465.205 2368.5,468C 2349.87,470.829 2331.2,473.329 2312.5,475.5C 2297.18,476.777 2281.84,477.611 2266.5,478C 2261.03,476.097 2255.7,473.93 2250.5,471.5C 2237.69,460.823 2228.52,447.49 2223,431.5C 2220.36,423.751 2217.86,416.084 2215.5,408.5C 2205.49,357.035 2200.82,305.035 2201.5,252.5C 2201.31,236.734 2201.97,221.067 2203.5,205.5C 2204.68,188.115 2208.68,171.448 2215.5,155.5C 2221.11,145.703 2228.11,136.87 2236.5,129C 2245.7,120.935 2256.37,117.935 2268.5,120C 2282.58,120.856 2295.24,125.356 2306.5,133.5 Z"/></g>
<g><path style="opacity:1" fill="#faed51" d="M 2193.5,401.5 C 2188.7,422.786 2178.03,440.452 2161.5,454.5C 2156.79,457.187 2151.79,459.354 2146.5,461C 2138.14,462.696 2130.48,461.196 2123.5,456.5C 2122.06,454.937 2120.39,453.604 2118.5,452.5C 2115.85,449.883 2113.69,446.883 2112,443.5C 2107.27,430.653 2109.27,418.986 2118,408.5C 2115.68,360.207 2114.18,311.874 2113.5,263.5C 2113.21,239.817 2113.54,216.151 2114.5,192.5C 2113.18,186.55 2112.18,180.55 2111.5,174.5C 2111.67,172.5 2111.83,170.5 2112,168.5C 2112.74,167.359 2113.57,167.359 2114.5,168.5C 2116.81,158.325 2118.48,147.991 2119.5,137.5C 2120.97,133.929 2122.13,130.262 2123,126.5C 2119.26,129.086 2115.43,131.419 2111.5,133.5C 2116.54,128.315 2122.54,124.482 2129.5,122C 2139.71,121.553 2149.04,124.219 2157.5,130C 2166.91,138.637 2173.41,149.137 2177,161.5C 2181.69,178.275 2185.36,195.275 2188,212.5C 2193.07,244.344 2196.74,276.344 2199,308.5C 2202.36,339.842 2200.53,370.842 2193.5,401.5 Z"/></g>
<g><path style="opacity:1" fill="#356fca" d="M 256.5,126.5 C 255.3,129.828 252.967,132.328 249.5,134C 225.411,137.904 201.411,142.237 177.5,147C 153.967,152.177 131.633,160.51 110.5,172C 105.004,174.997 100.671,179.163 97.5,184.5C 92.9817,176.4 91.6484,167.733 93.5,158.5C 104.357,149.809 115.357,141.309 126.5,133C 149.568,132.255 172.568,130.589 195.5,128C 199.865,126.6 204.199,125.1 208.5,123.5C 220.194,126.339 232.027,128.339 244,129.5C 248.563,129.926 252.73,128.926 256.5,126.5 Z"/></g>
<g><path style="opacity:1" fill="#3d75c8" d="M 2119.5,137.5 C 2115.11,137.543 2110.77,137.709 2106.5,138C 2107.06,137.617 2107.39,137.117 2107.5,136.5C 2109.4,136.262 2110.74,135.262 2111.5,133.5C 2115.43,131.419 2119.26,129.086 2123,126.5C 2122.13,130.262 2120.97,133.929 2119.5,137.5 Z"/></g>
<g><path style="opacity:1" fill="#50aa64" d="M 1718.5,178.5 C 1730.7,209.436 1741.7,240.77 1751.5,272.5C 1757.46,293.335 1762.96,314.335 1768,335.5C 1773.71,355.468 1776.04,375.802 1775,396.5C 1773.97,403.436 1771.14,409.436 1766.5,414.5C 1757.81,423.374 1747.47,425.874 1735.5,422C 1730.31,419.909 1725.64,417.076 1721.5,413.5C 1713.45,402.079 1706.95,389.746 1702,376.5C 1693.26,350.947 1684.93,325.28 1677,299.5C 1676.67,299.167 1676.33,298.833 1676,298.5C 1673.93,307.402 1672.43,316.402 1671.5,325.5C 1669.29,337.741 1666.96,350.074 1664.5,362.5C 1662.28,376.045 1659.11,389.378 1655,402.5C 1653.08,409.528 1648.91,414.694 1642.5,418C 1621.36,426.347 1608.19,419.514 1603,397.5C 1607.61,331.042 1616.11,265.042 1628.5,199.5C 1627.57,196.529 1626.73,193.529 1626,190.5C 1625.72,185.681 1625.55,181.015 1625.5,176.5C 1627.3,171.564 1629.63,166.898 1632.5,162.5C 1636.3,159.761 1640.3,157.261 1644.5,155C 1646.39,152.618 1648.06,150.118 1649.5,147.5C 1650.47,145.932 1650.64,144.265 1650,142.5C 1642.8,146.77 1636.13,151.77 1630,157.5C 1636.79,147.386 1645.62,139.22 1656.5,133C 1659.17,132.333 1661.83,132.333 1664.5,133C 1668.55,134.44 1672.38,136.274 1676,138.5C 1676.5,138.333 1677,138.167 1677.5,138C 1675.83,137 1674.5,135.667 1673.5,134C 1682.78,134.205 1691.11,137.205 1698.5,143C 1706.35,154.199 1713.01,166.032 1718.5,178.5 Z"/></g>
<g><path style="opacity:1" fill="#9eb673" d="M 2111.5,133.5 C 2110.74,135.262 2109.4,136.262 2107.5,136.5C 2108.26,134.738 2109.6,133.738 2111.5,133.5 Z"/></g>
<g><path style="opacity:1" fill="#4596f7" d="M 2069.5,153.5 C 2072.33,161.862 2072.17,170.196 2069,178.5C 2068.5,185.492 2068.33,192.492 2068.5,199.5C 2067.67,194.015 2067.17,188.348 2067,182.5C 2062.47,190.221 2058.47,198.221 2055,206.5C 2054.82,210.025 2054.32,213.359 2053.5,216.5C 2053.59,213.402 2053.09,213.068 2052,215.5C 2051.07,221.848 2050.07,228.182 2049,234.5C 2047.94,259.506 2046.77,284.506 2045.5,309.5C 2045.01,320.214 2046.35,330.547 2049.5,340.5C 2049.67,343.874 2050.17,347.207 2051,350.5C 2056.2,365.76 2061.2,381.094 2066,396.5C 2068.41,406.028 2069.07,415.694 2068,425.5C 2064.3,436.531 2056.8,443.364 2045.5,446C 2047.13,446.494 2048.8,446.66 2050.5,446.5C 2039.4,450.133 2028.73,449.133 2018.5,443.5C 2014.49,437.611 2010.33,431.277 2006,424.5C 1999.95,410.63 1995.28,396.297 1992,381.5C 1989.31,367.867 1986.81,354.201 1984.5,340.5C 1984.27,339.068 1983.6,338.568 1982.5,339C 1980.79,341.043 1978.79,342.71 1976.5,344C 1977.06,344.383 1977.39,344.883 1977.5,345.5C 1976.83,345.833 1976.17,346.167 1975.5,346.5C 1975.57,346.062 1975.4,345.728 1975,345.5C 1970.5,348.667 1966,351.833 1961.5,355C 1926.91,373.344 1895.41,369.177 1867,342.5C 1868.18,363.881 1867.51,385.214 1865,406.5C 1863.14,410.22 1861.31,413.886 1859.5,417.5C 1856.53,419.147 1853.86,421.147 1851.5,423.5C 1844.08,426.609 1836.41,427.276 1828.5,425.5C 1824.69,422.75 1821.02,419.75 1817.5,416.5C 1815.18,411.366 1813.34,406.033 1812,400.5C 1811.33,353.833 1811.33,307.167 1812,260.5C 1812.64,253.434 1814.47,246.767 1817.5,240.5C 1816.38,224.852 1816.21,209.185 1817,193.5C 1817.75,183.483 1819.92,173.817 1823.5,164.5C 1827.79,157.213 1833.45,151.213 1840.5,146.5C 1847.73,141.571 1855.07,141.404 1862.5,146C 1871.56,154.059 1878.72,163.559 1884,174.5C 1885.91,178.259 1886.75,182.259 1886.5,186.5C 1886.09,192.507 1885.59,198.507 1885,204.5C 1883.17,212.129 1881.67,219.796 1880.5,227.5C 1879.78,227.918 1879.28,228.584 1879,229.5C 1878.7,240.421 1881.53,250.421 1887.5,259.5C 1896.26,274.786 1906.1,289.453 1917,303.5C 1920.43,305.815 1924.26,306.815 1928.5,306.5C 1935.69,305.19 1940.02,300.856 1941.5,293.5C 1945.02,280.095 1948.85,266.762 1953,253.5C 1955.83,247.83 1959.17,242.497 1963,237.5C 1973.51,227.662 1982.51,216.662 1990,204.5C 1993.13,193.44 1996.46,182.44 2000,171.5C 2002.61,163.609 2006.28,156.276 2011,149.5C 2021.26,137.858 2034.09,133.358 2049.5,136C 2057.92,139.923 2064.58,145.756 2069.5,153.5 Z"/></g>
<g><path style="opacity:1" fill="#eff6f7" d="M 2411.5,136.5 C 2416.07,142.613 2420.91,148.613 2426,154.5C 2429.79,163.075 2433.29,171.741 2436.5,180.5C 2426.54,166.846 2418.21,152.179 2411.5,136.5 Z"/></g>
<g><path style="opacity:1" fill="#f3f7fd" d="M 1840.5,146.5 C 1833.45,151.213 1827.79,157.213 1823.5,164.5C 1823.5,158.833 1823.5,153.167 1823.5,147.5C 1829.14,146.866 1834.81,146.532 1840.5,146.5 Z"/></g>
<g><path style="opacity:1" fill="#eef5f7" d="M 1649.5,147.5 C 1648.06,150.118 1646.39,152.618 1644.5,155C 1640.3,157.261 1636.3,159.761 1632.5,162.5C 1632.1,159.956 1632.77,157.789 1634.5,156C 1639.23,152.636 1644.23,149.803 1649.5,147.5 Z"/></g>
<g><path style="opacity:1" fill="#faecec" d="M 1461.5,156.5 C 1466.2,159.025 1466.2,160.358 1461.5,160.5C 1461.5,159.167 1461.5,157.833 1461.5,156.5 Z"/></g>
<g><path style="opacity:1" fill="#3472cd" d="M 908.5,169.5 C 938.255,168.709 967.922,169.876 997.5,173C 1006.53,174.764 1013.37,179.597 1018,187.5C 1027.53,203.945 1031.19,221.612 1029,240.5C 1027.45,245.042 1024.28,247.875 1019.5,249C 1013.47,249.656 1007.8,248.489 1002.5,245.5C 1006.73,242.775 1010.56,239.441 1014,235.5C 1025.26,209.852 1017.43,193.019 990.5,185C 963.209,178.653 935.542,175.486 907.5,175.5C 907.205,173.265 907.539,171.265 908.5,169.5 Z"/></g>
<g><path style="opacity:1" fill="#fffdea" d="M 2152.5,168.5 C 2153.24,168.369 2153.91,168.536 2154.5,169C 2153.17,170.333 2151.83,171.667 2150.5,173C 2145.48,176.005 2140.48,178.672 2135.5,181C 2141.23,176.812 2146.9,172.646 2152.5,168.5 Z"/></g>
<g><path style="opacity:1" fill="#f9fcfc" d="M 2508.5,169.5 C 2512.59,174.769 2516.93,179.935 2521.5,185C 2524.06,186.777 2526.73,188.277 2529.5,189.5C 2529.14,194.946 2528.14,200.279 2526.5,205.5C 2524.8,206.681 2523.14,206.681 2521.5,205.5C 2516.59,193.685 2512.26,181.685 2508.5,169.5 Z"/></g>
<g><path style="opacity:1" fill="#3471cc" d="M 2068.5,199.5 C 2069.38,239.184 2070.88,278.85 2073,318.5C 2074.16,350.827 2074.49,383.161 2074,415.5C 2073.34,423.796 2071.51,431.796 2068.5,439.5C 2063.25,443.651 2057.25,445.985 2050.5,446.5C 2048.8,446.66 2047.13,446.494 2045.5,446C 2056.8,443.364 2064.3,436.531 2068,425.5C 2069.07,415.694 2068.41,406.028 2066,396.5C 2061.2,381.094 2056.2,365.76 2051,350.5C 2050.17,347.207 2049.67,343.874 2049.5,340.5C 2049.65,299.124 2050.99,257.791 2053.5,216.5C 2054.32,213.359 2054.82,210.025 2055,206.5C 2058.47,198.221 2062.47,190.221 2067,182.5C 2067.17,188.348 2067.67,194.015 2068.5,199.5 Z"/></g>
<g><path style="opacity:1" fill="#3572cd" d="M 376.5,202.5 C 374.693,217.367 377.693,231.033 385.5,243.5C 384.486,244.765 382.986,245.431 381,245.5C 378.019,245.919 375.686,244.919 374,242.5C 368.649,228.631 369.482,215.298 376.5,202.5 Z"/></g>
<g><path style="opacity:1" fill="#fbfcfb" d="M 807.5,199.5 C 807.666,205.842 807.5,212.175 807,218.5C 806.509,223.31 804.842,227.644 802,231.5C 793.921,238.123 784.754,242.456 774.5,244.5C 790.157,232.826 801.157,217.826 807.5,199.5 Z"/></g>
<g><path style="opacity:1" fill="#4c6ebe" d="M 107.5,208.5 C 122.976,213.241 138.643,216.575 154.5,218.5C 139.831,217.416 125.164,216.25 110.5,215C 109.086,213.007 108.086,210.84 107.5,208.5 Z"/></g>
<g><path style="opacity:1" fill="#ecf4fd" d="M 2053.5,216.5 C 2050.99,257.791 2049.65,299.124 2049.5,340.5C 2046.35,330.547 2045.01,320.214 2045.5,309.5C 2046.77,284.506 2047.94,259.506 2049,234.5C 2050.07,228.182 2051.07,221.848 2052,215.5C 2053.09,213.068 2053.59,213.402 2053.5,216.5 Z"/></g>
<g><path style="opacity:1" fill="#447fc8" d="M 2592.5,211.5 C 2588.62,224.166 2586.46,237.166 2586,250.5C 2585.5,269.164 2585.33,287.83 2585.5,306.5C 2583.62,276.574 2584.45,246.574 2588,216.5C 2589.52,214.76 2591.02,213.094 2592.5,211.5 Z"/></g>
<g><path style="opacity:1" fill="#8386b5" d="M 156.5,218.5 C 159.518,218.335 162.518,218.502 165.5,219C 166.416,219.278 167.082,219.778 167.5,220.5C 163.613,220.354 159.946,219.687 156.5,218.5 Z"/></g>
<g><path style="opacity:1" fill="#e2edfa" d="M 1880.5,227.5 C 1882.52,238.235 1884.85,248.902 1887.5,259.5C 1881.53,250.421 1878.7,240.421 1879,229.5C 1879.28,228.584 1879.78,227.918 1880.5,227.5 Z"/></g>
<g><path style="opacity:1" fill="#3572cc" d="M 199.5,229.5 C 228.51,243.663 254.344,262.33 277,285.5C 285.657,295.159 289.491,306.492 288.5,319.5C 288.735,335.688 285.235,351.021 278,365.5C 274.201,370.301 270.034,374.801 265.5,379C 246.831,390.835 227.165,400.835 206.5,409C 176.205,416.698 145.538,418.364 114.5,414C 93.8579,410.507 73.8579,404.84 54.5,397C 46.854,393.679 40.0206,389.179 34,383.5C 29.7968,376.366 28.4635,368.7 30,360.5C 32.9838,345.206 40.4838,332.706 52.5,323C 61.1595,319.515 70.1595,317.515 79.5,317C 107.5,316.667 135.5,316.333 163.5,316C 175.541,314.6 176.541,310.6 166.5,304C 155.409,298.785 144.409,293.618 133.5,288.5C 144.856,289.569 156.19,289.569 167.5,288.5C 173.771,294.27 179.938,300.27 186,306.5C 189.967,310.99 190.301,315.657 187,320.5C 179.197,328.331 169.697,332.497 158.5,333C 133.5,333.333 108.5,333.667 83.5,334C 80.9644,334.186 78.631,334.686 76.5,335.5C 75.5,335.5 74.5,335.5 73.5,335.5C 62.3996,335.777 54.2329,340.777 49,350.5C 43.6708,358.773 42.6708,367.44 46,376.5C 50.0467,380.606 54.8801,383.273 60.5,384.5C 67.2562,389.748 74.9229,391.748 83.5,390.5C 96.4869,394.147 109.82,396.647 123.5,398C 144.856,398.846 166.189,398.512 187.5,397C 212.68,390.908 235.68,380.242 256.5,365C 265.904,355.473 271.071,343.973 272,330.5C 275.21,309.614 268.377,292.947 251.5,280.5C 240.519,263.685 226.185,250.519 208.5,241C 205.987,236.669 202.987,232.836 199.5,229.5 Z"/></g>
<g><path style="opacity:1" fill="#3371cc" d="M 983.5,249.5 C 978.441,255.865 971.775,259.365 963.5,260C 942.621,263.114 921.621,264.281 900.5,263.5C 900.5,268.167 900.5,272.833 900.5,277.5C 925.812,278.841 951.145,280.341 976.5,282C 988.336,283.279 999.336,286.945 1009.5,293C 1018.97,303.696 1024.8,316.196 1027,330.5C 1028.44,342.468 1028.78,354.468 1028,366.5C 1025.13,379.283 1017.13,384.283 1004,381.5C 992.504,380.712 981.004,380.545 969.5,381C 960.726,384.553 952.393,388.886 944.5,394C 938.774,396.575 932.774,397.909 926.5,398C 899.654,400.774 872.987,399.774 846.5,395C 823.278,388.473 814.778,373.307 821,349.5C 823.648,338.414 826.482,327.414 829.5,316.5C 830.497,316.47 831.164,316.97 831.5,318C 834.229,327.613 837.896,336.779 842.5,345.5C 841.609,353.846 840.609,362.18 839.5,370.5C 860.014,371.439 880.347,373.939 900.5,378C 916.993,380.577 933.327,379.91 949.5,376C 957.865,372.813 966.198,369.647 974.5,366.5C 978.404,366.16 982.404,365.994 986.5,366C 989.484,364.729 992.484,363.562 995.5,362.5C 999.881,362.372 1004.21,362.705 1008.5,363.5C 1008.5,360.167 1008.5,356.833 1008.5,353.5C 1011.16,350.985 1013.33,347.985 1015,344.5C 1018.39,328.652 1013.56,316.152 1000.5,307C 989.284,301.945 977.618,298.279 965.5,296C 942.873,293.412 920.207,292.912 897.5,294.5C 897.333,282.495 897.5,270.495 898,258.5C 898.706,253.715 900.206,249.215 902.5,245C 929.567,247.467 956.567,248.967 983.5,249.5 Z"/></g>
<g><path style="opacity:1" fill="#3774cb" d="M 1155.5,246.5 C 1174.08,261.074 1191.08,277.407 1206.5,295.5C 1183.94,284.944 1166.94,268.611 1155.5,246.5 Z"/></g>
<g><path style="opacity:1" fill="#f5f8f6" d="M 649.5,254.5 C 652.082,255.921 653.749,258.088 654.5,261C 653.344,265.348 652.011,269.514 650.5,273.5C 650.1,267.171 649.767,260.838 649.5,254.5 Z"/></g>
<g><path style="opacity:1" fill="#f1f0f6" d="M 1553.5,261.5 C 1555.75,266.243 1554.41,269.41 1549.5,271C 1546.18,271.498 1542.85,271.665 1539.5,271.5C 1544.42,268.587 1549.09,265.254 1553.5,261.5 Z"/></g>
<g><path style="opacity:1" fill="#fbfafb" d="M 251.5,280.5 C 268.377,292.947 275.21,309.614 272,330.5C 271.071,343.973 265.904,355.473 256.5,365C 235.68,380.242 212.68,390.908 187.5,397C 166.189,398.512 144.856,398.846 123.5,398C 109.82,396.647 96.4869,394.147 83.5,390.5C 90.1515,391.239 96.8181,391.906 103.5,392.5C 107.748,392.814 111.581,391.814 115,389.5C 122.604,392.851 130.604,394.185 139,393.5C 169.104,393.683 197.271,386.516 223.5,372C 235.62,364.881 245.453,355.381 253,343.5C 260.816,322.186 260.316,301.186 251.5,280.5 Z"/></g>
<g><path style="opacity:1" fill="#fbf7f8" d="M 76.5,335.5 C 78.631,334.686 80.9644,334.186 83.5,334C 108.5,333.667 133.5,333.333 158.5,333C 169.697,332.497 179.197,328.331 187,320.5C 190.301,315.657 189.967,310.99 186,306.5C 179.938,300.27 173.771,294.27 167.5,288.5C 169.884,288.557 172.218,288.223 174.5,287.5C 185.878,292.375 195.378,299.708 203,309.5C 203.667,311.5 203.667,313.5 203,315.5C 195.51,326.666 185.01,332.833 171.5,334C 158.833,334.333 146.167,334.667 133.5,335C 132.328,335.419 131.328,336.085 130.5,337C 122.354,338.33 114.187,339.497 106,340.5C 96.0836,339.134 86.2502,337.467 76.5,335.5 Z"/></g>
<g><path style="opacity:1" fill="#3472ca" d="M 1721.5,413.5 C 1712.71,411.886 1705.55,407.553 1700,400.5C 1695.54,392.257 1692.21,383.59 1690,374.5C 1687.55,360.03 1683.55,346.03 1678,332.5C 1676.33,329.669 1674.17,327.336 1671.5,325.5C 1672.43,316.402 1673.93,307.402 1676,298.5C 1676.33,298.833 1676.67,299.167 1677,299.5C 1684.93,325.28 1693.26,350.947 1702,376.5C 1706.95,389.746 1713.45,402.079 1721.5,413.5 Z"/></g>
<g><path style="opacity:1" fill="#e6f0fc" d="M 1941.5,293.5 C 1940.02,300.856 1935.69,305.19 1928.5,306.5C 1933.17,302.5 1937.5,298.167 1941.5,293.5 Z"/></g>
<g><path style="opacity:1" fill="#3673cb" d="M 1161.5,346.5 C 1148.48,340.572 1136.31,333.239 1125,324.5C 1125.86,330.72 1126.36,337.053 1126.5,343.5C 1126.73,349.657 1125.89,355.657 1124,361.5C 1120.48,367.789 1115.64,369.123 1109.5,365.5C 1113.82,361.349 1116.65,356.349 1118,350.5C 1118.83,337.434 1118.33,324.434 1116.5,311.5C 1120.02,311.929 1123.02,313.429 1125.5,316C 1137.1,326.782 1149.1,336.949 1161.5,346.5 Z"/></g>
<g><path style="opacity:1" fill="#3572cc" d="M 1064.5,327.5 C 1065.33,334.989 1065.83,342.656 1066,350.5C 1068.35,358.222 1072.85,364.222 1079.5,368.5C 1078.32,375.554 1075.32,381.72 1070.5,387C 1064.24,389.285 1060.07,387.118 1058,380.5C 1055.44,362.246 1057.61,344.579 1064.5,327.5 Z"/></g>
<g><path style="opacity:1" fill="#3b76cc" d="M 1232.5,329.5 C 1239.03,338.705 1237.36,345.871 1227.5,351C 1222.96,352.74 1218.3,353.906 1213.5,354.5C 1218.4,351.104 1222.9,347.104 1227,342.5C 1230,338.526 1231.83,334.193 1232.5,329.5 Z"/></g>
<g><path style="opacity:1" fill="#f6f4f7" d="M 73.5,335.5 C 68.7261,338.396 64.0594,341.563 59.5,345C 47.2961,358.432 47.6294,371.598 60.5,384.5C 54.8801,383.273 50.0467,380.606 46,376.5C 42.6708,367.44 43.6708,358.773 49,350.5C 54.2329,340.777 62.3996,335.777 73.5,335.5 Z"/></g>
<g><path style="opacity:1" fill="#3572cd" d="M 2018.5,443.5 C 2013.7,441.873 2009.53,439.206 2006,435.5C 2002.75,430.666 1999.75,425.666 1997,420.5C 1987.21,396.345 1980.71,371.345 1977.5,345.5C 1977.39,344.883 1977.06,344.383 1976.5,344C 1978.79,342.71 1980.79,341.043 1982.5,339C 1983.6,338.568 1984.27,339.068 1984.5,340.5C 1986.81,354.201 1989.31,367.867 1992,381.5C 1995.28,396.297 1999.95,410.63 2006,424.5C 2010.33,431.277 2014.49,437.611 2018.5,443.5 Z"/></g>
<g><path style="opacity:1" fill="#f9faf7" d="M 689.5,338.5 C 689.1,351.292 687.6,363.959 685,376.5C 683.432,381.875 681.099,386.875 678,391.5C 676.362,393.734 674.195,395.067 671.5,395.5C 675.659,391.165 678.825,386.165 681,380.5C 682.021,366.019 684.854,352.019 689.5,338.5 Z"/></g>
<g><path style="opacity:1" fill="#f6f9fd" d="M 378.5,365.5 C 371.941,364.036 365.607,361.869 359.5,359C 354.004,356.003 349.671,351.837 346.5,346.5C 346.435,346.062 346.601,345.728 347,345.5C 349.669,348.164 352.836,349.998 356.5,351C 362.952,351.027 368.452,353.194 373,357.5C 374.105,360.937 376.272,363.437 379.5,365C 379.272,365.399 378.938,365.565 378.5,365.5 Z"/></g>
<g><path style="opacity:1" fill="#fbfcfe" d="M 842.5,345.5 C 845.892,350.401 849.892,354.901 854.5,359C 858.183,362.34 862.516,364.34 867.5,365C 888.143,365.284 908.476,362.618 928.5,357C 939.475,354.392 950.475,354.059 961.5,356C 965.776,359.797 970.109,363.297 974.5,366.5C 966.198,369.647 957.865,372.813 949.5,376C 933.327,379.91 916.993,380.577 900.5,378C 880.347,373.939 860.014,371.439 839.5,370.5C 840.609,362.18 841.609,353.846 842.5,345.5 Z"/></g>
<g><path style="opacity:1" fill="#e5effa" d="M 1008.5,353.5 C 1008.5,356.833 1008.5,360.167 1008.5,363.5C 1004.21,362.705 999.881,362.372 995.5,362.5C 999.97,359.759 1004.3,356.759 1008.5,353.5 Z"/></g>
<g><path style="opacity:1" fill="#426fc5" d="M 2297.5,343.5 C 2296,357.84 2300.33,370.007 2310.5,380C 2317.36,384.8 2325.03,386.967 2333.5,386.5C 2327.26,389.394 2320.59,391.061 2313.5,391.5C 2308.89,391.612 2305.06,389.945 2302,386.5C 2299.74,382.113 2298.4,377.446 2298,372.5C 2296.62,362.684 2296.45,353.017 2297.5,343.5 Z"/></g>
<g><path style="opacity:1" fill="#f8f7fa" d="M 1456.5,362.5 C 1460.15,376.706 1463.15,391.04 1465.5,405.5C 1451.83,405.139 1438.16,404.639 1424.5,404C 1418.05,403.722 1411.72,402.722 1405.5,401C 1399.49,400.383 1398.32,397.883 1402,393.5C 1403.15,390.232 1403.98,386.899 1404.5,383.5C 1406.8,388.321 1410.13,392.488 1414.5,396C 1428.21,401.591 1440.38,399.091 1451,388.5C 1454.03,379.947 1455.87,371.281 1456.5,362.5 Z"/></g>
<g><path style="opacity:1" fill="#e1ecfa" d="M 530.5,366.5 C 527.744,369.389 524.411,371.556 520.5,373C 498.658,377.904 476.658,378.737 454.5,375.5C 455.263,374.732 456.263,374.232 457.5,374C 461.667,373.833 465.833,373.667 470,373.5C 481.815,374.665 493.648,375.165 505.5,375C 514.467,373.845 522.8,371.011 530.5,366.5 Z"/></g>
<g><path style="opacity:1" fill="#3572cc" d="M 2505.5,372.5 C 2509.79,384.977 2513.45,397.644 2516.5,410.5C 2516.97,423.292 2519.47,435.625 2524,447.5C 2525.45,450.303 2527.62,452.303 2530.5,453.5C 2539.89,464.18 2551.22,466.846 2564.5,461.5C 2572.83,462.444 2580.33,460.444 2587,455.5C 2588.93,451.573 2589.76,447.406 2589.5,443C 2589.21,436.381 2588.21,429.881 2586.5,423.5C 2591.68,421.319 2596.35,418.319 2600.5,414.5C 2602.36,429.442 2602.86,444.442 2602,459.5C 2600.79,467.419 2596.29,472.252 2588.5,474C 2574.19,475.408 2559.86,475.741 2545.5,475C 2521.23,473.402 2507.07,460.569 2503,436.5C 2500.66,414.907 2501.5,393.573 2505.5,372.5 Z"/></g>
<g><path style="opacity:1" fill="#3670ca" d="M 2215.5,408.5 C 2217.86,416.084 2220.36,423.751 2223,431.5C 2228.52,447.49 2237.69,460.823 2250.5,471.5C 2255.01,476.423 2260.68,479.257 2267.5,480C 2282.91,481.195 2297.91,479.695 2312.5,475.5C 2331.2,473.329 2349.87,470.829 2368.5,468C 2392.02,465.205 2414.35,458.539 2435.5,448C 2440.24,444.687 2443.07,440.187 2444,434.5C 2442.1,404.099 2425.94,387.099 2395.5,383.5C 2397.29,382.691 2399.29,382.191 2401.5,382C 2412.5,381.333 2423.5,381.333 2434.5,382C 2445.15,385.663 2450.99,393.163 2452,404.5C 2452.17,416.06 2453,427.56 2454.5,439C 2454.78,446.767 2451.45,452.434 2444.5,456C 2434.07,460.92 2423.41,465.253 2412.5,469C 2388.22,476.154 2363.88,483.154 2339.5,490C 2319.59,494.735 2299.43,497.568 2279,498.5C 2258.5,499.601 2242.83,491.601 2232,474.5C 2222.34,453.558 2216.84,431.558 2215.5,408.5 Z"/></g>
<g><path style="opacity:1" fill="#81ade1" d="M 1382.5,366.5 C 1382.83,372.206 1382.5,377.872 1381.5,383.5C 1380.89,383.376 1380.56,383.043 1380.5,382.5C 1381.17,377.167 1381.83,371.833 1382.5,366.5 Z"/></g>
<g><path style="opacity:1" fill="#fbfcfb" d="M 2193.5,401.5 C 2193.92,411.284 2193.09,420.951 2191,430.5C 2188.17,447.163 2178.34,455.163 2161.5,454.5C 2178.03,440.452 2188.7,422.786 2193.5,401.5 Z"/></g>
<g><path style="opacity:1" fill="#eaf3f4" d="M 2516.5,410.5 C 2520.74,424.884 2525.41,439.217 2530.5,453.5C 2527.62,452.303 2525.45,450.303 2524,447.5C 2519.47,435.625 2516.97,423.292 2516.5,410.5 Z"/></g>
<g><path style="opacity:1" fill="#edf4fb" d="M 1817.5,416.5 C 1821.02,419.75 1824.69,422.75 1828.5,425.5C 1826.6,425.433 1824.77,425.767 1823,426.5C 1821.4,425.115 1819.57,424.449 1817.5,424.5C 1817.5,421.833 1817.5,419.167 1817.5,416.5 Z"/></g>
<g><path style="opacity:1" fill="#edf4fc" d="M 1859.5,417.5 C 1859.83,419.5 1860.17,421.5 1860.5,423.5C 1857.5,423.5 1854.5,423.5 1851.5,423.5C 1853.86,421.147 1856.53,419.147 1859.5,417.5 Z"/></g>
<g><path style="opacity:1" fill="#f7fafc" d="M 2586.5,423.5 C 2588.21,429.881 2589.21,436.381 2589.5,443C 2589.76,447.406 2588.93,451.573 2587,455.5C 2580.33,460.444 2572.83,462.444 2564.5,461.5C 2576.78,453.204 2581.62,441.537 2579,426.5C 2581.6,425.727 2584.1,424.727 2586.5,423.5 Z"/></g>
<g><path style="opacity:1" fill="#f0f5f9" d="M 2118.5,452.5 C 2120.39,453.604 2122.06,454.937 2123.5,456.5C 2121.43,459.124 2120.1,462.124 2119.5,465.5C 2118.51,461.217 2118.17,456.884 2118.5,452.5 Z"/></g>
<g><path style="opacity:1" fill="#efe8ee" d="M 2250.5,471.5 C 2255.7,473.93 2261.03,476.097 2266.5,478C 2281.84,477.611 2297.18,476.777 2312.5,475.5C 2297.91,479.695 2282.91,481.195 2267.5,480C 2260.68,479.257 2255.01,476.423 2250.5,471.5 Z"/></g>
<g><path style="opacity:1" fill="#3572cc" d="M 787.5,683.5 C 783.11,673.704 778.943,663.704 775,653.5C 769.509,632.379 765.176,611.046 762,589.5C 760.561,586.397 758.727,583.564 756.5,581C 752.922,577.591 748.922,574.758 744.5,572.5C 741.34,570 737.673,568.667 733.5,568.5C 717.508,561.605 702.841,563.605 689.5,574.5C 684.218,575.756 678.885,576.756 673.5,577.5C 674.26,584.157 674.927,590.823 675.5,597.5C 674.426,600.393 673.76,603.393 673.5,606.5C 676.361,626.073 678.194,645.74 679,665.5C 680.41,674.55 682.077,683.55 684,692.5C 689.536,706.609 694.37,720.942 698.5,735.5C 699.953,744.884 701.619,754.217 703.5,763.5C 701.034,773.03 699.367,782.697 698.5,792.5C 697.833,798.833 697.167,805.167 696.5,811.5C 688.06,793.349 680.893,774.682 675,755.5C 673.291,746.581 672.458,737.581 672.5,728.5C 673.923,714.194 674.423,699.861 674,685.5C 668.762,662.218 662.429,639.218 655,616.5C 652.444,601.609 651.111,586.609 651,571.5C 650.056,570.737 649.556,569.737 649.5,568.5C 651.614,565.061 653.281,561.394 654.5,557.5C 656.63,555.102 659.297,553.768 662.5,553.5C 665.438,554.603 668.271,555.936 671,557.5C 695.133,553.788 719.299,553.622 743.5,557C 752.737,559.235 759.237,564.735 763,573.5C 774.912,609.291 783.079,645.958 787.5,683.5 Z"/></g>
<g><path style="opacity:1" fill="#fbed51" d="M 733.5,568.5 C 736.581,571.068 740.248,572.402 744.5,572.5C 748.922,574.758 752.922,577.591 756.5,581C 758.727,583.564 760.561,586.397 762,589.5C 765.176,611.046 769.509,632.379 775,653.5C 778.943,663.704 783.11,673.704 787.5,683.5C 787.5,687.167 787.5,690.833 787.5,694.5C 787.602,706.222 786.936,717.888 785.5,729.5C 787.903,729.607 789.736,728.607 791,726.5C 799.813,714.421 806.146,701.088 810,686.5C 812.299,669.267 817.966,653.267 827,638.5C 836.841,626.247 849.508,618.914 865,616.5C 869.575,616.791 874.075,617.457 878.5,618.5C 883.508,620.173 888.174,622.673 892.5,626C 900.103,633.435 907.103,641.268 913.5,649.5C 923.944,666.966 932.777,685.299 940,704.5C 943.922,712.016 948.589,719.016 954,725.5C 956.569,714.29 960.069,703.29 964.5,692.5C 969.718,684.06 973.884,675.06 977,665.5C 976.9,649.508 976.734,633.508 976.5,617.5C 975.958,600.745 982.625,587.912 996.5,579C 1001.07,576.548 1005.73,574.382 1010.5,572.5C 1018.56,568.134 1026.89,567.467 1035.5,570.5C 1040.02,578.217 1045.02,585.551 1050.5,592.5C 1059.24,602.569 1067.58,612.902 1075.5,623.5C 1077.42,627.425 1078.42,631.592 1078.5,636C 1077.82,662.171 1077.15,688.337 1076.5,714.5C 1074.56,724.171 1072.06,733.838 1069,743.5C 1064.04,756.091 1058.54,768.424 1052.5,780.5C 1042.76,798.819 1038.1,818.486 1038.5,839.5C 1040.49,855.99 1039.66,872.323 1036,888.5C 1034.64,892.775 1032.8,896.775 1030.5,900.5C 1027.83,903.833 1024.83,906.833 1021.5,909.5C 1013.95,914.108 1005.95,917.941 997.5,921C 985.906,924.026 975.24,922.026 965.5,915C 962.469,912.441 960.302,909.274 959,905.5C 956.287,903.28 953.454,901.28 950.5,899.5C 941.016,889.221 933.516,877.554 928,864.5C 918.891,845.507 911.558,825.841 906,805.5C 904.33,800.827 902.163,796.493 899.5,792.5C 891.855,780.668 884.355,768.668 877,756.5C 873.959,746.581 873.792,736.581 876.5,726.5C 877.807,724.777 877.807,722.943 876.5,721C 871.599,719.593 867.599,720.76 864.5,724.5C 859.98,735.893 856.147,747.559 853,759.5C 850.82,778.941 847.987,798.274 844.5,817.5C 842.103,830.403 839.77,843.403 837.5,856.5C 836.112,870.837 831.278,883.837 823,895.5C 815.582,905.589 807.415,915.089 798.5,924C 783.414,933.984 767.08,936.317 749.5,931C 743.178,929.008 738.345,925.175 735,919.5C 730.755,908.666 725.255,898.666 718.5,889.5C 705.301,866.714 698.635,842.047 698.5,815.5C 698.5,807.833 698.5,800.167 698.5,792.5C 699.367,782.697 701.034,773.03 703.5,763.5C 704.172,753.848 702.505,744.514 698.5,735.5C 694.37,720.942 689.536,706.609 684,692.5C 682.077,683.55 680.41,674.55 679,665.5C 678.194,645.74 676.361,626.073 673.5,606.5C 673.76,603.393 674.426,600.393 675.5,597.5C 679.399,589.369 684.066,581.703 689.5,574.5C 702.841,563.605 717.508,561.605 733.5,568.5 Z"/></g>
<g><path style="opacity:1" fill="#3371cc" d="M 1035.5,570.5 C 1051.32,569.925 1066.99,571.092 1082.5,574C 1110.58,580.124 1120.08,596.957 1111,624.5C 1109.15,630.892 1107.49,637.225 1106,643.5C 1116.08,632.551 1128.58,627.884 1143.5,629.5C 1125.57,633.219 1110.07,641.552 1097,654.5C 1095.08,657.339 1093.41,660.339 1092,663.5C 1088.65,673.941 1086.32,684.608 1085,695.5C 1083.5,718.998 1084.66,742.331 1088.5,765.5C 1088.26,777.157 1090.76,788.157 1096,798.5C 1097.62,800.763 1099.45,802.763 1101.5,804.5C 1106.84,814.34 1113.84,822.84 1122.5,830C 1134.33,837.915 1147,844.248 1160.5,849C 1161.83,850.333 1163.17,851.667 1164.5,853C 1173.38,857.606 1182.38,861.939 1191.5,866C 1190.91,866.464 1190.24,866.631 1189.5,866.5C 1179.17,864.916 1169.17,862.083 1159.5,858C 1131.42,846.555 1106.25,830.722 1084,810.5C 1078.3,802.078 1074.97,792.745 1074,782.5C 1072.58,760.348 1073.74,738.348 1077.5,716.5C 1077.46,715.584 1077.12,714.917 1076.5,714.5C 1077.15,688.337 1077.82,662.171 1078.5,636C 1078.42,631.592 1077.42,627.425 1075.5,623.5C 1078.37,615.562 1081.03,607.562 1083.5,599.5C 1072.4,597.641 1061.4,595.308 1050.5,592.5C 1045.02,585.551 1040.02,578.217 1035.5,570.5 Z"/></g>
<g><path style="opacity:1" fill="#f4f5e6" d="M 733.5,568.5 C 737.673,568.667 741.34,570 744.5,572.5C 740.248,572.402 736.581,571.068 733.5,568.5 Z"/></g>
<g><path style="opacity:1" fill="#3572cb" d="M 1010.5,572.5 C 1005.73,574.382 1001.07,576.548 996.5,579C 982.625,587.912 975.958,600.745 976.5,617.5C 970.795,642.102 966.795,667.102 964.5,692.5C 960.069,703.29 956.569,714.29 954,725.5C 948.589,719.016 943.922,712.016 940,704.5C 932.777,685.299 923.944,666.966 913.5,649.5C 912.773,626.771 901.106,616.438 878.5,618.5C 874.075,617.457 869.575,616.791 865,616.5C 849.508,618.914 836.841,626.247 827,638.5C 817.966,653.267 812.299,669.267 810,686.5C 806.146,701.088 799.813,714.421 791,726.5C 789.736,728.607 787.903,729.607 785.5,729.5C 786.936,717.888 787.602,706.222 787.5,694.5C 789.018,697.534 789.851,700.867 790,704.5C 794.935,685.362 801.268,666.695 809,648.5C 813.822,636.354 820.988,625.854 830.5,617C 836.636,613.299 843.303,610.966 850.5,610C 869.259,606.394 887.926,606.727 906.5,611C 916.71,614.531 922.877,621.698 925,632.5C 927.895,646.208 930.895,659.874 934,673.5C 936.495,679.658 940.162,684.991 945,689.5C 949.192,660.345 955.525,631.678 964,603.5C 966.632,593.399 971.465,584.566 978.5,577C 988.98,572.925 999.647,571.425 1010.5,572.5 Z"/></g>
<g><path style="opacity:1" fill="#f8fafa" d="M 689.5,574.5 C 684.066,581.703 679.399,589.369 675.5,597.5C 674.927,590.823 674.26,584.157 673.5,577.5C 678.885,576.756 684.218,575.756 689.5,574.5 Z"/></g>
<g><path style="opacity:1" fill="#fcfdfd" d="M 1050.5,592.5 C 1061.4,595.308 1072.4,597.641 1083.5,599.5C 1081.03,607.562 1078.37,615.562 1075.5,623.5C 1067.58,612.902 1059.24,602.569 1050.5,592.5 Z"/></g>
<g><path style="opacity:1" fill="#d3362e" d="M 1578.5,607.5 C 1583.87,611.871 1588.54,616.871 1592.5,622.5C 1595.43,626.702 1598.1,631.035 1600.5,635.5C 1603.74,646.428 1605.74,657.594 1606.5,669C 1604.47,699.459 1603.97,729.959 1605,760.5C 1605.37,776.581 1606.7,792.581 1609,808.5C 1610.34,820.056 1614.84,830.056 1622.5,838.5C 1627.44,837.552 1632.44,837.219 1637.5,837.5C 1643.52,838.037 1649.52,838.703 1655.5,839.5C 1663.37,841.468 1671.37,843.468 1679.5,845.5C 1701.9,837.607 1724.9,835.441 1748.5,839C 1761.5,843.572 1772,851.405 1780,862.5C 1784.93,870.844 1786.76,879.844 1785.5,889.5C 1782.85,900.099 1779.19,910.433 1774.5,920.5C 1770.85,926.464 1767.18,932.464 1763.5,938.5C 1757.55,945.823 1749.88,950.656 1740.5,953C 1715.44,955.282 1690.44,954.615 1665.5,951C 1644.59,948.348 1623.92,944.515 1603.5,939.5C 1592.97,935.925 1582.97,931.092 1573.5,925C 1569.58,921.59 1566.25,917.757 1563.5,913.5C 1555.6,899.454 1549.27,884.788 1544.5,869.5C 1535.29,836.41 1527.62,803.077 1521.5,769.5C 1521.49,766.455 1521.16,763.455 1520.5,760.5C 1514.97,722.656 1513.47,684.656 1516,646.5C 1516.46,641.951 1517.63,637.617 1519.5,633.5C 1529.6,612.615 1546.27,602.115 1569.5,602C 1572.65,603.662 1575.65,605.495 1578.5,607.5 Z"/></g>
<g><path style="opacity:1" fill="#3b70c9" d="M 1637.5,837.5 C 1632.44,837.219 1627.44,837.552 1622.5,838.5C 1614.84,830.056 1610.34,820.056 1609,808.5C 1606.7,792.581 1605.37,776.581 1605,760.5C 1603.97,729.959 1604.47,699.459 1606.5,669C 1605.74,657.594 1603.74,646.428 1600.5,635.5C 1601.68,630.466 1603.01,625.466 1604.5,620.5C 1600.48,621.038 1596.48,621.705 1592.5,622.5C 1588.54,616.871 1583.87,611.871 1578.5,607.5C 1588.71,602.966 1599.37,601.132 1610.5,602C 1618.67,603.5 1623.5,608.333 1625,616.5C 1626.42,625.125 1626.75,633.792 1626,642.5C 1621.95,675.194 1617.62,707.861 1613,740.5C 1609.8,764.183 1609.8,787.85 1613,811.5C 1614.89,820.141 1619.39,826.974 1626.5,832C 1630.19,833.942 1633.86,835.776 1637.5,837.5 Z"/></g>
<g><path style="opacity:1" fill="#f9fbfb" d="M 878.5,618.5 C 901.106,616.438 912.773,626.771 913.5,649.5C 907.103,641.268 900.103,633.435 892.5,626C 888.174,622.673 883.508,620.173 878.5,618.5 Z"/></g>
<g><path style="opacity:1" fill="#f7f6f9" d="M 1600.5,635.5 C 1598.1,631.035 1595.43,626.702 1592.5,622.5C 1596.48,621.705 1600.48,621.038 1604.5,620.5C 1603.01,625.466 1601.68,630.466 1600.5,635.5 Z"/></g>
<g><path style="opacity:1" fill="#3371cc" d="M 2111.5,621.5 C 2116.29,620.97 2120.62,622.137 2124.5,625C 2147.66,641.488 2165.82,662.322 2179,687.5C 2193.13,668.372 2209.63,651.539 2228.5,637C 2235.83,631.358 2241.67,632.525 2246,640.5C 2255.71,668.3 2260.54,696.967 2260.5,726.5C 2261.22,737.198 2259.89,747.532 2256.5,757.5C 2252.48,757.816 2248.48,757.983 2244.5,758C 2242.32,756.152 2240.49,753.985 2239,751.5C 2235.56,741.421 2233.23,731.088 2232,720.5C 2230.79,704.489 2229.45,688.489 2228,672.5C 2217.13,685.035 2205.3,696.535 2192.5,707C 2188.93,709.201 2185.1,710.701 2181,711.5C 2172.72,709.226 2166.05,704.56 2161,697.5C 2150.28,684.452 2139.95,671.119 2130,657.5C 2129.34,665.73 2129.84,673.897 2131.5,682C 2130.7,699.813 2130.2,717.646 2130,735.5C 2129.63,740.304 2128.63,744.97 2127,749.5C 2124.77,751.879 2122.27,752.046 2119.5,750C 2114.71,745.931 2111.88,740.764 2111,734.5C 2107.75,710.285 2105.75,685.952 2105,661.5C 2099.63,664.545 2093.79,666.378 2087.5,667C 2071.58,669.256 2055.58,670.423 2039.5,670.5C 2039.8,700.016 2043.8,729.016 2051.5,757.5C 2052.25,766.588 2048.25,770.088 2039.5,768C 2037.41,767.208 2035.58,766.041 2034,764.5C 2026.63,748.324 2022.3,731.324 2021,713.5C 2019.91,699.52 2019.41,685.52 2019.5,671.5C 2008.17,671.03 1996.84,670.53 1985.5,670C 1977.39,669.987 1970.22,667.487 1964,662.5C 1962.63,660.305 1962.29,657.971 1963,655.5C 1965.5,653.667 1968,651.833 1970.5,650C 1987.5,649.667 2004.5,649.333 2021.5,649C 2026.64,640.41 2031.97,640.41 2037.5,649C 2056.84,649.341 2076.17,649.841 2095.5,650.5C 2095.5,649.5 2095.5,648.5 2095.5,647.5C 2098.5,648.167 2101.5,648.833 2104.5,649.5C 2103.41,639.202 2105.74,629.869 2111.5,621.5 Z"/></g>
<g><path style="opacity:1" fill="#f7f9fa" d="M 976.5,617.5 C 976.734,633.508 976.9,649.508 977,665.5C 973.884,675.06 969.718,684.06 964.5,692.5C 966.795,667.102 970.795,642.102 976.5,617.5 Z"/></g>
<g><path style="opacity:1" fill="#4597f7" d="M 1200.5,629.5 C 1223.91,636.439 1247.58,642.939 1271.5,649C 1297.97,659.474 1316.47,677.974 1327,704.5C 1329.72,707.557 1332.06,710.89 1334,714.5C 1334.69,715.738 1335.19,715.738 1335.5,714.5C 1339.84,722.332 1343.34,730.666 1346,739.5C 1346.46,738.906 1346.63,738.239 1346.5,737.5C 1347.7,746.678 1348.7,756.011 1349.5,765.5C 1347.36,782.061 1343.03,798.061 1336.5,813.5C 1332.02,821.114 1327.02,828.447 1321.5,835.5C 1322.29,839.562 1323.29,843.562 1324.5,847.5C 1324.01,864.14 1316.01,875.307 1300.5,881C 1287.14,882.783 1273.8,884.783 1260.5,887C 1252.03,887.95 1243.7,887.283 1235.5,885C 1219.94,879.044 1204.61,872.878 1189.5,866.5C 1190.24,866.631 1190.91,866.464 1191.5,866C 1182.38,861.939 1173.38,857.606 1164.5,853C 1163.17,851.667 1161.83,850.333 1160.5,849C 1147,844.248 1134.33,837.915 1122.5,830C 1113.84,822.84 1106.84,814.34 1101.5,804.5C 1096.1,793.783 1092.6,782.45 1091,770.5C 1090.63,768.509 1089.79,766.842 1088.5,765.5C 1084.66,742.331 1083.5,718.998 1085,695.5C 1086.32,684.608 1088.65,673.941 1092,663.5C 1093.41,660.339 1095.08,657.339 1097,654.5C 1110.07,641.552 1125.57,633.219 1143.5,629.5C 1162.49,628.799 1181.49,628.799 1200.5,629.5 Z"/></g>
<g><path style="opacity:1" fill="#3674ce" d="M 1335.5,714.5 C 1335.19,715.738 1334.69,715.738 1334,714.5C 1332.06,710.89 1329.72,707.557 1327,704.5C 1316.47,677.974 1297.97,659.474 1271.5,649C 1247.58,642.939 1223.91,636.439 1200.5,629.5C 1202.42,628.149 1204.59,627.482 1207,627.5C 1239.37,632.069 1269.87,642.235 1298.5,658C 1319.22,671.247 1331.55,690.08 1335.5,714.5 Z"/></g>
<g><path style="opacity:1" fill="#cbddf2" d="M 2110.5,631.5 C 2112.67,632.838 2114.34,634.672 2115.5,637C 2114.55,637.617 2113.72,637.451 2113,636.5C 2111.91,634.922 2111.07,633.255 2110.5,631.5 Z"/></g>
<g><path style="opacity:1" fill="#3b6fc8" d="M 1519.5,633.5 C 1517.63,637.617 1516.46,641.951 1516,646.5C 1513.47,684.656 1514.97,722.656 1520.5,760.5C 1517.23,760.116 1514.4,758.782 1512,756.5C 1508.39,746.468 1506.06,736.135 1505,725.5C 1503.62,706.517 1503.28,687.517 1504,668.5C 1504.77,659.4 1507.11,650.734 1511,642.5C 1513.36,638.973 1516.2,635.973 1519.5,633.5 Z"/></g>
<g><path style="opacity:1" fill="#3472cb" d="M 1485.5,757.5 C 1493.63,741.997 1491.63,727.997 1479.5,715.5C 1477.39,707.87 1473.05,701.703 1466.5,697C 1457.92,690.54 1448.58,685.374 1438.5,681.5C 1429.63,675.401 1419.97,670.901 1409.5,668C 1403.5,667.333 1397.5,667.333 1391.5,668C 1386.66,669.247 1382.66,671.747 1379.5,675.5C 1375.85,675.942 1372.18,676.276 1368.5,676.5C 1368.5,683.833 1368.5,691.167 1368.5,698.5C 1365.88,708.003 1364.04,717.669 1363,727.5C 1361.68,782.635 1366.01,837.301 1376,891.5C 1383.07,907.641 1394.9,912.475 1411.5,906C 1417.1,903.45 1421.6,899.617 1425,894.5C 1426.38,895.705 1427.54,897.038 1428.5,898.5C 1425.55,907.468 1419.22,911.634 1409.5,911C 1405.18,911.499 1400.85,911.666 1396.5,911.5C 1396,917.847 1392.66,920.68 1386.5,920C 1382.5,917.333 1379.17,914 1376.5,910C 1371.79,909.323 1367.63,907.49 1364,904.5C 1363.16,902.179 1362.83,899.845 1363,897.5C 1364.47,894.204 1366.64,891.537 1369.5,889.5C 1366.1,877.655 1363.26,865.655 1361,853.5C 1355.36,824.398 1351.53,795.064 1349.5,765.5C 1348.7,756.011 1347.7,746.678 1346.5,737.5C 1345.61,719.173 1345.44,700.84 1346,682.5C 1346.57,676.326 1347.9,670.326 1350,664.5C 1352.22,661.265 1355.22,659.265 1359,658.5C 1389.92,662.567 1420.42,668.401 1450.5,676C 1461.94,679.388 1472.61,684.388 1482.5,691C 1491.04,698.586 1495.38,708.086 1495.5,719.5C 1495.49,731.739 1492.99,743.405 1488,754.5C 1487.62,755.942 1486.79,756.942 1485.5,757.5 Z"/></g>
<g><path style="opacity:1" fill="#3471cc" d="M 1985.5,833.5 C 1984.83,833.833 1984.17,834.167 1983.5,834.5C 1982.11,822.592 1979.61,810.925 1976,799.5C 1969.21,783.138 1963.21,766.471 1958,749.5C 1953.47,740.415 1947.97,732.082 1941.5,724.5C 1932.58,703.252 1916.92,689.918 1894.5,684.5C 1883.43,676.304 1871.1,670.804 1857.5,668C 1845.18,665.27 1835.18,668.77 1827.5,678.5C 1822.17,678.5 1816.83,678.5 1811.5,678.5C 1812.08,687.155 1812.42,695.822 1812.5,704.5C 1809.76,711.132 1807.76,717.965 1806.5,725C 1808.12,747.464 1808.95,769.964 1809,792.5C 1810.02,800.803 1810.68,809.136 1811,817.5C 1817.26,854.604 1821.43,891.937 1823.5,929.5C 1817.3,915.069 1812.47,900.069 1809,884.5C 1799.84,838.886 1793.51,792.886 1790,746.5C 1789.33,729.5 1789.33,712.5 1790,695.5C 1790.13,688.306 1791.97,681.64 1795.5,675.5C 1788.37,669.107 1789.04,663.607 1797.5,659C 1831.78,660.305 1865.78,663.971 1899.5,670C 1930.77,677.398 1951.93,696.231 1963,726.5C 1976.19,760.948 1983.69,796.615 1985.5,833.5 Z"/></g>
<g><path style="opacity:1" fill="#50aa64" d="M 1438.5,681.5 C 1448.97,689.804 1458.3,699.304 1466.5,710C 1470.94,711.619 1475.28,713.452 1479.5,715.5C 1491.63,727.997 1493.63,741.997 1485.5,757.5C 1483.74,758.262 1482.74,759.596 1482.5,761.5C 1478.54,763.788 1475.21,766.788 1472.5,770.5C 1463.79,778.708 1454.62,786.375 1445,793.5C 1444.05,803.601 1446.22,812.934 1451.5,821.5C 1462.98,844.484 1479.31,863.317 1500.5,878C 1505.8,882.455 1510.13,887.621 1513.5,893.5C 1515.06,897.674 1515.73,902.007 1515.5,906.5C 1514.17,910.167 1512.83,913.833 1511.5,917.5C 1508.8,922.377 1505.46,926.877 1501.5,931C 1489.08,938.054 1476.75,938.054 1464.5,931C 1451.08,921.752 1439.08,910.919 1428.5,898.5C 1427.54,897.038 1426.38,895.705 1425,894.5C 1421.6,899.617 1417.1,903.45 1411.5,906C 1394.9,912.475 1383.07,907.641 1376,891.5C 1366.01,837.301 1361.68,782.635 1363,727.5C 1364.04,717.669 1365.88,708.003 1368.5,698.5C 1371.33,690.503 1375,682.836 1379.5,675.5C 1382.66,671.747 1386.66,669.247 1391.5,668C 1397.5,667.333 1403.5,667.333 1409.5,668C 1419.97,670.901 1429.63,675.401 1438.5,681.5 Z"/></g>
<g><path style="opacity:1" fill="#50aa64" d="M 1894.5,684.5 C 1902.77,690.311 1911.1,696.144 1919.5,702C 1927.06,709.395 1934.4,716.895 1941.5,724.5C 1947.97,732.082 1953.47,740.415 1958,749.5C 1963.21,766.471 1969.21,783.138 1976,799.5C 1979.61,810.925 1982.11,822.592 1983.5,834.5C 1986.43,856.765 1987.43,879.098 1986.5,901.5C 1985.65,906.232 1984.48,910.899 1983,915.5C 1975.85,928.807 1969.51,942.473 1964,956.5C 1961,960.992 1957.84,965.325 1954.5,969.5C 1933.84,988.441 1909.51,996.274 1881.5,993C 1873.53,990.787 1865.86,987.787 1858.5,984C 1855.61,982.062 1852.94,979.895 1850.5,977.5C 1841.48,976.296 1834.15,972.296 1828.5,965.5C 1824.84,960.157 1823.17,954.157 1823.5,947.5C 1823.5,941.5 1823.5,935.5 1823.5,929.5C 1821.43,891.937 1817.26,854.604 1811,817.5C 1810.68,809.136 1810.02,800.803 1809,792.5C 1808.95,769.964 1808.12,747.464 1806.5,725C 1807.76,717.965 1809.76,711.132 1812.5,704.5C 1816.63,695.359 1821.63,686.692 1827.5,678.5C 1835.18,668.77 1845.18,665.27 1857.5,668C 1871.1,670.804 1883.43,676.304 1894.5,684.5 Z"/></g>
<g><path style="opacity:1" fill="#f5f9fa" d="M 1379.5,675.5 C 1375,682.836 1371.33,690.503 1368.5,698.5C 1368.5,691.167 1368.5,683.833 1368.5,676.5C 1372.18,676.276 1375.85,675.942 1379.5,675.5 Z"/></g>
<g><path style="opacity:1" fill="#f8fbfb" d="M 1827.5,678.5 C 1821.63,686.692 1816.63,695.359 1812.5,704.5C 1812.42,695.822 1812.08,687.155 1811.5,678.5C 1816.83,678.5 1822.17,678.5 1827.5,678.5 Z"/></g>
<g><path style="opacity:1" fill="#f4f9fa" d="M 1438.5,681.5 C 1448.58,685.374 1457.92,690.54 1466.5,697C 1473.05,701.703 1477.39,707.87 1479.5,715.5C 1475.28,713.452 1470.94,711.619 1466.5,710C 1458.3,699.304 1448.97,689.804 1438.5,681.5 Z"/></g>
<g><path style="opacity:1" fill="#f3f8fa" d="M 1894.5,684.5 C 1916.92,689.918 1932.58,703.252 1941.5,724.5C 1934.4,716.895 1927.06,709.395 1919.5,702C 1911.1,696.144 1902.77,690.311 1894.5,684.5 Z"/></g>
<g><path style="opacity:1" fill="#e1eaea" d="M 876.5,726.5 C 876.67,725.178 876.337,724.011 875.5,723C 871.567,722.116 867.901,722.616 864.5,724.5C 867.599,720.76 871.599,719.593 876.5,721C 877.807,722.943 877.807,724.777 876.5,726.5 Z"/></g>
<g><path style="opacity:1" fill="#3572cb" d="M 876.5,726.5 C 873.792,736.581 873.959,746.581 877,756.5C 884.355,768.668 891.855,780.668 899.5,792.5C 900.693,810.223 902.526,827.89 905,845.5C 907.007,857.866 911.007,869.532 917,880.5C 926.023,890.595 937.189,896.929 950.5,899.5C 953.454,901.28 956.287,903.28 959,905.5C 960.302,909.274 962.469,912.441 965.5,915C 975.24,922.026 985.906,924.026 997.5,921C 1005.95,917.941 1013.95,914.108 1021.5,909.5C 1026.75,909.722 1031.75,908.889 1036.5,907C 1033.59,905.594 1031.59,903.428 1030.5,900.5C 1032.8,896.775 1034.64,892.775 1036,888.5C 1039.66,872.323 1040.49,855.99 1038.5,839.5C 1038.1,818.486 1042.76,798.819 1052.5,780.5C 1049.08,794.432 1047.75,808.598 1048.5,823C 1050.03,848.149 1050.86,873.316 1051,898.5C 1049.88,915.95 1040.72,926.116 1023.5,929C 990.252,933.084 958.586,927.751 928.5,913C 912.048,903.869 900.548,890.369 894,872.5C 881.078,838.477 872.078,803.477 867,767.5C 858.627,783.901 851.127,800.568 844.5,817.5C 847.987,798.274 850.82,778.941 853,759.5C 856.147,747.559 859.98,735.893 864.5,724.5C 867.901,722.616 871.567,722.116 875.5,723C 876.337,724.011 876.67,725.178 876.5,726.5 Z"/></g>
<g><path style="opacity:1" fill="#f5f7f0" d="M 698.5,735.5 C 702.505,744.514 704.172,753.848 703.5,763.5C 701.619,754.217 699.953,744.884 698.5,735.5 Z"/></g>
<g><path style="opacity:1" fill="#5589cb" d="M 1482.5,761.5 C 1482.14,763.371 1481.14,764.871 1479.5,766C 1477.27,767.75 1474.93,769.25 1472.5,770.5C 1475.21,766.788 1478.54,763.788 1482.5,761.5 Z"/></g>
<g><path style="opacity:1" fill="#e5effb" d="M 1088.5,765.5 C 1089.79,766.842 1090.63,768.509 1091,770.5C 1092.6,782.45 1096.1,793.783 1101.5,804.5C 1099.45,802.763 1097.62,800.763 1096,798.5C 1090.76,788.157 1088.26,777.157 1088.5,765.5 Z"/></g>
<g><path style="opacity:1" fill="#3971ca" d="M 1521.5,769.5 C 1527.62,803.077 1535.29,836.41 1544.5,869.5C 1545.74,883.466 1549.91,896.466 1557,908.5C 1558.78,910.79 1560.94,912.457 1563.5,913.5C 1566.25,917.757 1569.58,921.59 1573.5,925C 1582.97,931.092 1592.97,935.925 1603.5,939.5C 1586.58,941.513 1570.58,938.68 1555.5,931C 1547.75,925.233 1542.25,917.733 1539,908.5C 1534.38,894.143 1531.05,879.477 1529,864.5C 1526.22,832.841 1523.72,801.174 1521.5,769.5 Z"/></g>
<g><path style="opacity:1" fill="#fdfdfd" d="M 899.5,792.5 C 902.163,796.493 904.33,800.827 906,805.5C 911.558,825.841 918.891,845.507 928,864.5C 933.516,877.554 941.016,889.221 950.5,899.5C 937.189,896.929 926.023,890.595 917,880.5C 911.007,869.532 907.007,857.866 905,845.5C 902.526,827.89 900.693,810.223 899.5,792.5 Z"/></g>
<g><path style="opacity:1" fill="#588db0" d="M 698.5,792.5 C 698.5,800.167 698.5,807.833 698.5,815.5C 697.655,814.329 696.989,812.995 696.5,811.5C 697.167,805.167 697.833,798.833 698.5,792.5 Z"/></g>
<g><path style="opacity:1" fill="#3673ce" d="M 1336.5,813.5 C 1334.27,825.539 1330.27,836.872 1324.5,847.5C 1323.29,843.562 1322.29,839.562 1321.5,835.5C 1327.02,828.447 1332.02,821.114 1336.5,813.5 Z"/></g>
<g><path style="opacity:1" fill="#3472cb" d="M 1451.5,821.5 C 1480.97,843.127 1507.8,867.794 1532,895.5C 1538.19,904.241 1536.36,910.407 1526.5,914C 1521.5,915.335 1516.5,916.502 1511.5,917.5C 1512.83,913.833 1514.17,910.167 1515.5,906.5C 1518.06,906.868 1520.06,906.034 1521.5,904C 1519.91,899.639 1517.24,896.139 1513.5,893.5C 1510.13,887.621 1505.8,882.455 1500.5,878C 1479.31,863.317 1462.98,844.484 1451.5,821.5 Z"/></g>
<g><path style="opacity:1" fill="#3a70c9" d="M 1763.5,938.5 C 1767.18,932.464 1770.85,926.464 1774.5,920.5C 1781.94,919.865 1787.78,916.532 1792,910.5C 1792.68,902.545 1790.51,895.545 1785.5,889.5C 1786.76,879.844 1784.93,870.844 1780,862.5C 1772,851.405 1761.5,843.572 1748.5,839C 1724.9,835.441 1701.9,837.607 1679.5,845.5C 1671.37,843.468 1663.37,841.468 1655.5,839.5C 1682.52,837.662 1709.52,835.662 1736.5,833.5C 1753.85,831.445 1768.01,837.111 1779,850.5C 1793.85,870.383 1801.52,892.716 1802,917.5C 1798.75,925.044 1793.25,930.211 1785.5,933C 1778.39,935.778 1771.06,937.611 1763.5,938.5 Z"/></g>
<g><path style="opacity:1" fill="#4981c9" d="M 1985.5,833.5 C 1988.46,859.594 1989.13,885.594 1987.5,911.5C 1987.81,907.958 1987.48,904.625 1986.5,901.5C 1987.43,879.098 1986.43,856.765 1983.5,834.5C 1984.17,834.167 1984.83,833.833 1985.5,833.5 Z"/></g>
<g><path style="opacity:1" fill="#3672cb" d="M 837.5,856.5 C 839.012,875.762 836.845,894.762 831,913.5C 828.549,918.58 825.049,922.747 820.5,926C 801.148,935.486 780.648,939.986 759,939.5C 743.004,942.334 731.338,936.667 724,922.5C 720.68,911.735 718.847,900.735 718.5,889.5C 725.255,898.666 730.755,908.666 735,919.5C 738.345,925.175 743.178,929.008 749.5,931C 767.08,936.317 783.414,933.984 798.5,924C 807.415,915.089 815.582,905.589 823,895.5C 831.278,883.837 836.112,870.837 837.5,856.5 Z"/></g>
<g><path style="opacity:1" fill="#f1ecf1" d="M 1544.5,869.5 C 1549.27,884.788 1555.6,899.454 1563.5,913.5C 1560.94,912.457 1558.78,910.79 1557,908.5C 1549.91,896.466 1545.74,883.466 1544.5,869.5 Z"/></g>
<g><path style="opacity:1" fill="#f7f6f9" d="M 1785.5,889.5 C 1790.51,895.545 1792.68,902.545 1792,910.5C 1787.78,916.532 1781.94,919.865 1774.5,920.5C 1779.19,910.433 1782.85,900.099 1785.5,889.5 Z"/></g>
<g><path style="opacity:1" fill="#f0f6fa" d="M 1513.5,893.5 C 1517.24,896.139 1519.91,899.639 1521.5,904C 1520.06,906.034 1518.06,906.868 1515.5,906.5C 1515.73,902.007 1515.06,897.674 1513.5,893.5 Z"/></g>
<g><path style="opacity:1" fill="#f1f5f8" d="M 1030.5,900.5 C 1031.59,903.428 1033.59,905.594 1036.5,907C 1031.75,908.889 1026.75,909.722 1021.5,909.5C 1024.83,906.833 1027.83,903.833 1030.5,900.5 Z"/></g>
<g><path style="opacity:1" fill="#3371cb" d="M 1986.5,901.5 C 1987.48,904.625 1987.81,907.958 1987.5,911.5C 1988.1,926.552 1985.27,940.885 1979,954.5C 1972.71,962.404 1964.54,967.404 1954.5,969.5C 1957.84,965.325 1961,960.992 1964,956.5C 1969.51,942.473 1975.85,928.807 1983,915.5C 1984.48,910.899 1985.65,906.232 1986.5,901.5 Z"/></g>
<g><path style="opacity:1" fill="#4d81ce" d="M 1823.5,947.5 C 1823.17,954.157 1824.84,960.157 1828.5,965.5C 1822.11,963.062 1819.61,958.395 1821,951.5C 1821.2,949.68 1822.03,948.347 1823.5,947.5 Z"/></g>
</svg>
